<?xml version="1.0" encoding="utf-8"?>
<!-- Generator: Adobe Illustrator 26.3.1, SVG Export Plug-In . SVG Version: 6.00 Build 0)  -->
<svg version="1.1" id="Layer_1" xmlns="http://www.w3.org/2000/svg" xmlns:xlink="http://www.w3.org/1999/xlink" x="0px" y="0px"
	 viewBox="0 0 1080 1080" style="enable-background:new 0 0 1080 1080;" xml:space="preserve">
<style type="text/css">
	.st0{opacity:0.16;filter:url(#AI_Shadow_2);}
	.st1{fill:url(#SVGID_1_);}
	.st2{fill:url(#SVGID_00000035500371017284535410000002775253594162501806_);}
	.st3{fill:url(#SVGID_00000168083738983083463890000002078794761735913873_);}
	.st4{fill:url(#SVGID_00000119829674441332448030000000075193931912921758_);}
	.st5{fill:url(#SVGID_00000163758486565745325560000018100158457818062755_);}
	.st6{fill:url(#SVGID_00000145755852426361496060000003340432194572333208_);}
	.st7{fill:url(#SVGID_00000028296886051807989830000017359915756458754438_);}
	.st8{fill:url(#SVGID_00000164494939950639178070000014985052956234139833_);}
	.st9{fill:url(#SVGID_00000034086317698897641230000017178514697648965251_);}
	.st10{fill:url(#SVGID_00000121262244953588694500000000796701691526580927_);}
	.st11{fill:url(#SVGID_00000029743185588020931720000005356336089030143423_);}
	.st12{fill:url(#SVGID_00000013192587971985437780000017287153984803104954_);}
	.st13{fill:url(#SVGID_00000148655010874450115620000011696817354410670499_);}
	.st14{fill:url(#SVGID_00000014605430893791523610000002811863261175447949_);}
	.st15{fill:url(#SVGID_00000061433253125419551520000016997486592471071645_);}
	.st16{fill:url(#SVGID_00000175288215624317487250000013278669908538453138_);}
	.st17{fill:url(#SVGID_00000168801385336478353100000010758675394469903235_);}
	.st18{fill:url(#SVGID_00000067924647549739578900000012855102848644513959_);}
	.st19{fill:url(#SVGID_00000119108340581204510890000006983506472882013584_);}
	.st20{fill:url(#SVGID_00000053505065172252455860000008715884162680346018_);}
	.st21{fill:url(#SVGID_00000047743317115196309940000008497544112160399528_);}
	.st22{fill:url(#SVGID_00000119835671165589487190000013242452910922620038_);}
	.st23{fill:url(#SVGID_00000047061731868039465480000011695846785890625929_);}
	.st24{fill:url(#SVGID_00000085248038432749278730000004536873755652281253_);}
	.st25{fill:url(#SVGID_00000044884998572267469560000003685474796031206532_);}
</style>
<filter  filterUnits="objectBoundingBox" height="130%" id="AI_Shadow_2" width="140%" x="-15%" y="-15%">
	<feGaussianBlur  in="SourceAlpha" result="blur" stdDeviation="6"></feGaussianBlur>
	<feOffset  dx="8" dy="8" in="blur" result="offsetBlurredAlpha"></feOffset>
	<feMerge>
		<feMergeNode  in="offsetBlurredAlpha"></feMergeNode>
		<feMergeNode  in="SourceGraphic"></feMergeNode>
	</feMerge>
</filter>
<g class="st0">
	<g>
		<path d="M302.4,473.5c0,2.2-0.9,3.3-2.6,3.3h-31.4v122.6c0,2.2-0.9,3.3-2.6,3.3c-1.8,0-2.6-1.1-2.6-3.3V476.8h-31.4
			c-1.8,0-2.6-1.1-2.6-3.3c0-2.2,0.9-3.3,2.6-3.3h68.1C301.5,470.2,302.4,471.3,302.4,473.5z"/>
		<path d="M362.2,578.3c0,0.6-0.1,1.2-0.4,1.8c-3.2,6.9-7.7,12.4-13.4,16.5c-5.7,4.1-11.8,6.1-18.4,6.1c-10.1,0-18.8-4.4-26-13.2
			c-7.2-8.8-10.7-19.5-10.7-32c0-12.5,3.6-23.2,10.7-32c7.2-8.8,15.8-13.2,26-13.2c4,0,8.1,0.9,12.3,2.7c3.9,1.7,7.9,4.6,12.1,8.5
			c5.1,4.8,7.7,9.2,7.7,13.2c0,1.2-0.4,2.1-1.3,2.7l-56.6,40.3c6.3,11,14.9,16.5,25.8,16.5c9.5,0,17.3-4.3,23.4-12.8
			c0.9-1.4,2.1-3.6,3.8-6.5c0.7-1.1,1.4-1.6,2.3-1.6C361.3,575.1,362.2,576.2,362.2,578.3z M355.8,535.2
			c-6.3-11-14.9-16.5-25.8-16.5c-8.7,0-16.1,3.8-22.2,11.3c-6.1,7.5-9.2,16.6-9.2,27.3c0,5.8,1,11.3,2.9,16.5L355.8,535.2z"/>
		<path d="M433.2,527.6c0,2.2-0.9,3.4-2.7,3.4c0.3,0-2.2-2-7.5-6.1c-5.3-4.1-10.8-6.1-16.6-6.1c-8.7,0-16.1,3.8-22.2,11.3
			c-6.1,7.5-9.2,16.6-9.2,27.3s3.1,19.8,9.2,27.3s13.5,11.3,22.2,11.3c5.8,0,11.3-2,16.6-6.1c5.3-4.1,7.8-6.1,7.4-6.1
			c1.8,0,2.7,1.1,2.7,3.4c0,0.8-0.3,1.6-0.8,2.3c-6.6,8.8-15.2,13.2-25.9,13.2c-10.1,0-18.8-4.4-26-13.2c-7.2-8.8-10.7-19.5-10.7-32
			c0-12.5,3.6-23.2,10.7-32c7.2-8.8,15.8-13.2,26-13.2c10.6,0,19.3,4.4,26,13.2C433,526.1,433.2,526.9,433.2,527.6z"/>
		<path d="M499.1,599.3c0,2.2-0.9,3.3-2.6,3.3c-1.8,0-2.6-1.1-2.6-3.3v-55.9c0-6.8-2-12.6-5.9-17.4s-8.7-7.3-14.2-7.3
			c-5.5,0-10.2,2.4-14.2,7.3s-5.9,10.7-5.9,17.4v55.9c0,2.2-0.9,3.3-2.6,3.3c-1.8,0-2.6-1.1-2.6-3.3V473.4c0-2.2,0.9-3.3,2.6-3.3
			c1.8,0,2.6,1.1,2.6,3.3v50.8c5.1-8.1,11.8-12.1,20.1-12.1c7,0,12.9,3.1,17.9,9.2c5,6.1,7.5,13.5,7.5,22.1V599.3z"/>
		<path d="M580,473.5c0,2.2-0.9,3.3-2.6,3.3h-54.1v56.3H566c1.8,0,2.6,1.1,2.6,3.3c0,2.2-0.9,3.3-2.6,3.3h-42.8v59.6
			c0,2.2-0.9,3.3-2.6,3.3c-1.8,0-2.6-1.1-2.6-3.3V473.4c0-2.2,0.9-3.3,2.6-3.3h56.8C579.2,470.2,580,471.3,580,473.5z"/>
		<path d="M599.6,477.1c0,4.4-1.9,6.6-5.6,6.6s-5.6-2.2-5.6-6.6c0-1.9,0.6-3.5,1.7-4.8c1.1-1.4,2.4-2.1,3.9-2.1
			c1.5,0,2.8,0.7,3.9,2.1C599.1,473.6,599.6,475.2,599.6,477.1z M596.7,515.4v83.9c0,2.2-0.9,3.3-2.6,3.3s-2.6-1.1-2.6-3.3v-83.9
			c0-2.2,0.9-3.3,2.6-3.3S596.7,513.2,596.7,515.4z"/>
		<path d="M670.1,599.3c0,2.2-0.9,3.3-2.6,3.3c-1.8,0-2.6-1.1-2.6-3.3v-55.9c0-6.8-2-12.6-5.9-17.4c-3.9-4.8-8.7-7.3-14.2-7.3
			c-5.5,0-10.2,2.4-14.2,7.3c-3.9,4.8-5.9,10.7-5.9,17.4v55.9c0,2.2-0.9,3.3-2.6,3.3s-2.6-1.1-2.6-3.3v-83.9c0-2.2,0.9-3.3,2.6-3.3
			s2.6,1.1,2.6,3.3v8.9c5.1-8.1,11.8-12.1,20.1-12.1c7,0,12.9,3.1,17.9,9.2c5,6.1,7.5,13.5,7.5,22.1V599.3z"/>
	</g>
	<g>
		<linearGradient id="SVGID_1_" gradientUnits="userSpaceOnUse" x1="228.9961" y1="536.3914" x2="302.3985" y2="536.3914">
			<stop  offset="0.1625" style="stop-color:#3E6180"/>
			<stop  offset="0.8012" style="stop-color:#0A3D83"/>
		</linearGradient>
		<path class="st1" d="M302.4,473.5c0,2.2-0.9,3.3-2.6,3.3h-31.4v122.6c0,2.2-0.9,3.3-2.6,3.3c-1.8,0-2.6-1.1-2.6-3.3V476.8h-31.4
			c-1.8,0-2.6-1.1-2.6-3.3c0-2.2,0.9-3.3,2.6-3.3h68.1C301.5,470.2,302.4,471.3,302.4,473.5z"/>
		
			<linearGradient id="SVGID_00000012432873355610418700000018129007295889319064_" gradientUnits="userSpaceOnUse" x1="293.3194" y1="557.3757" x2="362.1812" y2="557.3757">
			<stop  offset="0.1625" style="stop-color:#3E6180"/>
			<stop  offset="0.8012" style="stop-color:#0A3D83"/>
		</linearGradient>
		<path style="fill:url(#SVGID_00000012432873355610418700000018129007295889319064_);" d="M362.2,578.3c0,0.6-0.1,1.2-0.4,1.8
			c-3.2,6.9-7.7,12.4-13.4,16.5c-5.7,4.1-11.8,6.1-18.4,6.1c-10.1,0-18.8-4.4-26-13.2c-7.2-8.8-10.7-19.5-10.7-32
			c0-12.5,3.6-23.2,10.7-32c7.2-8.8,15.8-13.2,26-13.2c4,0,8.1,0.9,12.3,2.7c3.9,1.7,7.9,4.6,12.1,8.5c5.1,4.8,7.7,9.2,7.7,13.2
			c0,1.2-0.4,2.1-1.3,2.7l-56.6,40.3c6.3,11,14.9,16.5,25.8,16.5c9.5,0,17.3-4.3,23.4-12.8c0.9-1.4,2.1-3.6,3.8-6.5
			c0.7-1.1,1.4-1.6,2.3-1.6C361.3,575.1,362.2,576.2,362.2,578.3z M355.8,535.2c-6.3-11-14.9-16.5-25.8-16.5
			c-8.7,0-16.1,3.8-22.2,11.3c-6.1,7.5-9.2,16.6-9.2,27.3c0,5.8,1,11.3,2.9,16.5L355.8,535.2z"/>
		
			<linearGradient id="SVGID_00000173844308382015354140000005753084212876390274_" gradientUnits="userSpaceOnUse" x1="369.7476" y1="557.3757" x2="433.2368" y2="557.3757">
			<stop  offset="0.1625" style="stop-color:#3E6180"/>
			<stop  offset="0.8012" style="stop-color:#0A3D83"/>
		</linearGradient>
		<path style="fill:url(#SVGID_00000173844308382015354140000005753084212876390274_);" d="M433.2,527.6c0,2.2-0.9,3.4-2.7,3.4
			c0.3,0-2.2-2-7.5-6.1c-5.3-4.1-10.8-6.1-16.6-6.1c-8.7,0-16.1,3.8-22.2,11.3c-6.1,7.5-9.2,16.6-9.2,27.3s3.1,19.8,9.2,27.3
			s13.5,11.3,22.2,11.3c5.8,0,11.3-2,16.6-6.1c5.3-4.1,7.8-6.1,7.4-6.1c1.8,0,2.7,1.1,2.7,3.4c0,0.8-0.3,1.6-0.8,2.3
			c-6.6,8.8-15.2,13.2-25.9,13.2c-10.1,0-18.8-4.4-26-13.2c-7.2-8.8-10.7-19.5-10.7-32c0-12.5,3.6-23.2,10.7-32
			c7.2-8.8,15.8-13.2,26-13.2c10.6,0,19.3,4.4,26,13.2C433,526.1,433.2,526.9,433.2,527.6z"/>
		
			<linearGradient id="SVGID_00000140695460124794246660000008751566117087597714_" gradientUnits="userSpaceOnUse" x1="437.041" y1="524.1526" x2="606.6393" y2="672.6429">
			<stop  offset="0.1625" style="stop-color:#3E6180"/>
			<stop  offset="0.8012" style="stop-color:#0A3D83"/>
		</linearGradient>
		<path style="fill:url(#SVGID_00000140695460124794246660000008751566117087597714_);" d="M499.1,599.3c0,2.2-0.9,3.3-2.6,3.3
			c-1.8,0-2.6-1.1-2.6-3.3v-55.9c0-6.8-2-12.6-5.9-17.4s-8.7-7.3-14.2-7.3c-5.5,0-10.2,2.4-14.2,7.3s-5.9,10.7-5.9,17.4v55.9
			c0,2.2-0.9,3.3-2.6,3.3c-1.8,0-2.6-1.1-2.6-3.3V473.4c0-2.2,0.9-3.3,2.6-3.3c1.8,0,2.6,1.1,2.6,3.3v50.8
			c5.1-8.1,11.8-12.1,20.1-12.1c7,0,12.9,3.1,17.9,9.2c5,6.1,7.5,13.5,7.5,22.1V599.3z"/>
		
			<linearGradient id="SVGID_00000040551676840806679620000014760971659822760381_" gradientUnits="userSpaceOnUse" x1="517.9888" y1="536.3914" x2="580.0396" y2="536.3914">
			<stop  offset="0.1625" style="stop-color:#3E6180"/>
			<stop  offset="0.8012" style="stop-color:#0A3D83"/>
		</linearGradient>
		<path style="fill:url(#SVGID_00000040551676840806679620000014760971659822760381_);" d="M580,473.5c0,2.2-0.9,3.3-2.6,3.3h-54.1
			v56.3H566c1.8,0,2.6,1.1,2.6,3.3c0,2.2-0.9,3.3-2.6,3.3h-42.8v59.6c0,2.2-0.9,3.3-2.6,3.3c-1.8,0-2.6-1.1-2.6-3.3V473.4
			c0-2.2,0.9-3.3,2.6-3.3h56.8C579.2,470.2,580,471.3,580,473.5z"/>
		
			<linearGradient id="SVGID_00000026165375666051097520000008288698268861613187_" gradientUnits="userSpaceOnUse" x1="588.437" y1="536.3914" x2="599.6372" y2="536.3914">
			<stop  offset="0.1625" style="stop-color:#3E6180"/>
			<stop  offset="0.8012" style="stop-color:#0A3D83"/>
		</linearGradient>
		<path style="fill:url(#SVGID_00000026165375666051097520000008288698268861613187_);" d="M599.6,477.1c0,4.4-1.9,6.6-5.6,6.6
			s-5.6-2.2-5.6-6.6c0-1.9,0.6-3.5,1.7-4.8c1.1-1.4,2.4-2.1,3.9-2.1c1.5,0,2.8,0.7,3.9,2.1C599.1,473.6,599.6,475.2,599.6,477.1z
			 M596.7,515.4v83.9c0,2.2-0.9,3.3-2.6,3.3s-2.6-1.1-2.6-3.3v-83.9c0-2.2,0.9-3.3,2.6-3.3S596.7,513.2,596.7,515.4z"/>
		
			<linearGradient id="SVGID_00000147939511583620943380000012871536271716736671_" gradientUnits="userSpaceOnUse" x1="619.3862" y1="557.3757" x2="670.0874" y2="557.3757">
			<stop  offset="0.1625" style="stop-color:#3E6180"/>
			<stop  offset="0.8012" style="stop-color:#0A3D83"/>
		</linearGradient>
		<path style="fill:url(#SVGID_00000147939511583620943380000012871536271716736671_);" d="M670.1,599.3c0,2.2-0.9,3.3-2.6,3.3
			c-1.8,0-2.6-1.1-2.6-3.3v-55.9c0-6.8-2-12.6-5.9-17.4c-3.9-4.8-8.7-7.3-14.2-7.3c-5.5,0-10.2,2.4-14.2,7.3
			c-3.9,4.8-5.9,10.7-5.9,17.4v55.9c0,2.2-0.9,3.3-2.6,3.3s-2.6-1.1-2.6-3.3v-83.9c0-2.2,0.9-3.3,2.6-3.3s2.6,1.1,2.6,3.3v8.9
			c5.1-8.1,11.8-12.1,20.1-12.1c7,0,12.9,3.1,17.9,9.2c5,6.1,7.5,13.5,7.5,22.1V599.3z"/>
	</g>
</g>
<g>
	<g>
		
			<linearGradient id="SVGID_00000010292028270004877560000017184437620352893374_" gradientUnits="userSpaceOnUse" x1="251.3136" y1="252.7001" x2="628.8116" y2="447.347" gradientTransform="matrix(1 0 0 1 8.5109 191.4475)">
			<stop  offset="0.1625" style="stop-color:#25C5E8"/>
			<stop  offset="0.3918" style="stop-color:#2A9AC6"/>
			<stop  offset="0.8012" style="stop-color:#315A92"/>
		</linearGradient>
		<path style="fill:url(#SVGID_00000010292028270004877560000017184437620352893374_);" d="M291.9,463.6c0,2.2-0.9,3.3-2.6,3.3
			h-31.4v122.6c0,2.2-0.9,3.3-2.6,3.3c-1.8,0-2.6-1.1-2.6-3.3V466.9h-31.4c-1.8,0-2.6-1.1-2.6-3.3c0-2.2,0.9-3.3,2.6-3.3h68.1
			C291,460.3,291.9,461.4,291.9,463.6z"/>
		
			<linearGradient id="SVGID_00000018950456691354657290000007692698527515611540_" gradientUnits="userSpaceOnUse" x1="251.3136" y1="252.7001" x2="628.8116" y2="447.347" gradientTransform="matrix(1 0 0 1 8.5109 191.4475)">
			<stop  offset="0.1625" style="stop-color:#25C5E8"/>
			<stop  offset="0.3918" style="stop-color:#2A9AC6"/>
			<stop  offset="0.8012" style="stop-color:#315A92"/>
		</linearGradient>
		<path style="fill:url(#SVGID_00000018950456691354657290000007692698527515611540_);" d="M351.6,568.4c0,0.6-0.1,1.2-0.4,1.8
			c-3.2,6.9-7.7,12.4-13.4,16.5c-5.7,4.1-11.8,6.1-18.4,6.1c-10.1,0-18.8-4.4-26-13.2c-7.2-8.8-10.7-19.5-10.7-32
			c0-12.5,3.6-23.2,10.7-32c7.2-8.8,15.8-13.2,26-13.2c4,0,8.1,0.9,12.3,2.7c3.9,1.7,7.9,4.6,12.1,8.5c5.1,4.8,7.7,9.2,7.7,13.2
			c0,1.2-0.4,2.1-1.3,2.7l-56.6,40.3c6.3,11,14.9,16.5,25.8,16.5c9.5,0,17.3-4.3,23.4-12.8c0.9-1.4,2.1-3.6,3.8-6.5
			c0.7-1.1,1.4-1.6,2.3-1.6C350.7,565.2,351.6,566.2,351.6,568.4z M345.3,525.3c-6.3-11-14.9-16.5-25.8-16.5
			c-8.7,0-16.1,3.8-22.2,11.3c-6.1,7.5-9.2,16.6-9.2,27.3c0,5.8,1,11.3,2.9,16.5L345.3,525.3z"/>
		
			<linearGradient id="SVGID_00000106145050152129928290000001876165647917513896_" gradientUnits="userSpaceOnUse" x1="251.3136" y1="252.7001" x2="628.8116" y2="447.347" gradientTransform="matrix(1 0 0 1 8.5109 191.4475)">
			<stop  offset="0.1625" style="stop-color:#25C5E8"/>
			<stop  offset="0.3918" style="stop-color:#2A9AC6"/>
			<stop  offset="0.8012" style="stop-color:#315A92"/>
		</linearGradient>
		<path style="fill:url(#SVGID_00000106145050152129928290000001876165647917513896_);" d="M422.7,517.7c0,2.2-0.9,3.4-2.7,3.4
			c0.3,0-2.2-2-7.5-6.1c-5.3-4.1-10.8-6.1-16.6-6.1c-8.7,0-16.1,3.8-22.2,11.3c-6.1,7.5-9.2,16.6-9.2,27.3s3.1,19.8,9.2,27.3
			s13.5,11.3,22.2,11.3c5.8,0,11.3-2,16.6-6.1c5.3-4.1,7.8-6.1,7.4-6.1c1.8,0,2.7,1.1,2.7,3.4c0,0.8-0.3,1.6-0.8,2.3
			c-6.6,8.8-15.2,13.2-25.9,13.2c-10.1,0-18.8-4.4-26-13.2c-7.2-8.8-10.7-19.5-10.7-32c0-12.5,3.6-23.2,10.7-32
			c7.2-8.8,15.8-13.2,26-13.2c10.6,0,19.3,4.4,26,13.2C422.4,516.2,422.7,517,422.7,517.7z"/>
		
			<linearGradient id="SVGID_00000036238227962866946630000002482682415613696925_" gradientUnits="userSpaceOnUse" x1="251.3136" y1="252.7001" x2="628.8116" y2="447.347" gradientTransform="matrix(1 0 0 1 8.5109 191.4475)">
			<stop  offset="0.1625" style="stop-color:#25C5E8"/>
			<stop  offset="0.3918" style="stop-color:#2A9AC6"/>
			<stop  offset="0.8012" style="stop-color:#315A92"/>
		</linearGradient>
		<path style="fill:url(#SVGID_00000036238227962866946630000002482682415613696925_);" d="M488.5,589.4c0,2.2-0.9,3.3-2.6,3.3
			c-1.8,0-2.6-1.1-2.6-3.3v-55.9c0-6.8-2-12.6-5.9-17.4c-3.9-4.8-8.7-7.3-14.2-7.3c-5.5,0-10.2,2.4-14.2,7.3
			c-3.9,4.8-5.9,10.7-5.9,17.4v55.9c0,2.2-0.9,3.3-2.6,3.3c-1.8,0-2.6-1.1-2.6-3.3V463.5c0-2.2,0.9-3.3,2.6-3.3
			c1.8,0,2.6,1.1,2.6,3.3v50.8c5.1-8.1,11.8-12.1,20.1-12.1c7,0,12.9,3.1,17.9,9.2c5,6.1,7.5,13.5,7.5,22.1V589.4z"/>
		
			<linearGradient id="SVGID_00000178905819795436314570000009861623444154852493_" gradientUnits="userSpaceOnUse" x1="251.3136" y1="252.7001" x2="628.8116" y2="447.347" gradientTransform="matrix(1 0 0 1 8.5109 191.4475)">
			<stop  offset="0.1625" style="stop-color:#25C5E8"/>
			<stop  offset="0.3918" style="stop-color:#2A9AC6"/>
			<stop  offset="0.8012" style="stop-color:#315A92"/>
		</linearGradient>
		<path style="fill:url(#SVGID_00000178905819795436314570000009861623444154852493_);" d="M569.5,463.6c0,2.2-0.9,3.3-2.6,3.3
			h-54.1v56.3h42.8c1.8,0,2.6,1.1,2.6,3.3c0,2.2-0.9,3.3-2.6,3.3h-42.8v59.6c0,2.2-0.9,3.3-2.6,3.3c-1.8,0-2.6-1.1-2.6-3.3V463.5
			c0-2.2,0.9-3.3,2.6-3.3h56.8C568.6,460.3,569.5,461.4,569.5,463.6z"/>
		
			<linearGradient id="SVGID_00000155137569489774987830000001854403666457621682_" gradientUnits="userSpaceOnUse" x1="251.3136" y1="252.7001" x2="628.8116" y2="447.347" gradientTransform="matrix(1 0 0 1 8.5109 191.4475)">
			<stop  offset="0.1625" style="stop-color:#25C5E8"/>
			<stop  offset="0.3918" style="stop-color:#2A9AC6"/>
			<stop  offset="0.8012" style="stop-color:#315A92"/>
		</linearGradient>
		<path style="fill:url(#SVGID_00000155137569489774987830000001854403666457621682_);" d="M589.1,467.2c0,4.4-1.9,6.6-5.6,6.6
			s-5.6-2.2-5.6-6.6c0-1.9,0.6-3.5,1.7-4.8c1.1-1.4,2.4-2.1,3.9-2.1c1.5,0,2.8,0.7,3.9,2.1C588.5,463.7,589.1,465.3,589.1,467.2z
			 M586.1,505.5v83.9c0,2.2-0.9,3.3-2.6,3.3s-2.6-1.1-2.6-3.3v-83.9c0-2.2,0.9-3.3,2.6-3.3S586.1,503.3,586.1,505.5z"/>
		
			<linearGradient id="SVGID_00000061453720381605997260000015121187089621913504_" gradientUnits="userSpaceOnUse" x1="251.3136" y1="252.7001" x2="628.8116" y2="447.347" gradientTransform="matrix(1 0 0 1 8.5109 191.4475)">
			<stop  offset="0.1625" style="stop-color:#25C5E8"/>
			<stop  offset="0.3918" style="stop-color:#2A9AC6"/>
			<stop  offset="0.8012" style="stop-color:#315A92"/>
		</linearGradient>
		<path style="fill:url(#SVGID_00000061453720381605997260000015121187089621913504_);" d="M659.5,589.4c0,2.2-0.9,3.3-2.6,3.3
			c-1.8,0-2.6-1.1-2.6-3.3v-55.9c0-6.8-2-12.6-5.9-17.4c-3.9-4.8-8.7-7.3-14.2-7.3c-5.5,0-10.2,2.4-14.2,7.3
			c-3.9,4.8-5.9,10.7-5.9,17.4v55.9c0,2.2-0.9,3.3-2.6,3.3s-2.6-1.1-2.6-3.3v-83.9c0-2.2,0.9-3.3,2.6-3.3s2.6,1.1,2.6,3.3v8.9
			c5.1-8.1,11.8-12.1,20.1-12.1c7,0,12.9,3.1,17.9,9.2c5,6.1,7.5,13.5,7.5,22.1V589.4z"/>
	</g>
	<g>
		
			<linearGradient id="SVGID_00000157289708356271991310000014797375867408335767_" gradientUnits="userSpaceOnUse" x1="218.4577" y1="526.4797" x2="291.86" y2="526.4797">
			<stop  offset="0.1625" style="stop-color:#3E6180"/>
			<stop  offset="0.8012" style="stop-color:#0A3D83"/>
		</linearGradient>
		<path style="fill:url(#SVGID_00000157289708356271991310000014797375867408335767_);" d="M291.9,463.6c0,2.2-0.9,3.3-2.6,3.3
			h-31.4v122.6c0,2.2-0.9,3.3-2.6,3.3c-1.8,0-2.6-1.1-2.6-3.3V466.9h-31.4c-1.8,0-2.6-1.1-2.6-3.3c0-2.2,0.9-3.3,2.6-3.3h68.1
			C291,460.3,291.9,461.4,291.9,463.6z"/>
		
			<linearGradient id="SVGID_00000067228930812817630540000008412568001702147508_" gradientUnits="userSpaceOnUse" x1="282.7809" y1="547.4641" x2="351.6428" y2="547.4641">
			<stop  offset="0.1625" style="stop-color:#3E6180"/>
			<stop  offset="0.8012" style="stop-color:#0A3D83"/>
		</linearGradient>
		<path style="fill:url(#SVGID_00000067228930812817630540000008412568001702147508_);" d="M351.6,568.4c0,0.6-0.1,1.2-0.4,1.8
			c-3.2,6.9-7.7,12.4-13.4,16.5c-5.7,4.1-11.8,6.1-18.4,6.1c-10.1,0-18.8-4.4-26-13.2c-7.2-8.8-10.7-19.5-10.7-32
			c0-12.5,3.6-23.2,10.7-32c7.2-8.8,15.8-13.2,26-13.2c4,0,8.1,0.9,12.3,2.7c3.9,1.7,7.9,4.6,12.1,8.5c5.1,4.8,7.7,9.2,7.7,13.2
			c0,1.2-0.4,2.1-1.3,2.7l-56.6,40.3c6.3,11,14.9,16.5,25.8,16.5c9.5,0,17.3-4.3,23.4-12.8c0.9-1.4,2.1-3.6,3.8-6.5
			c0.7-1.1,1.4-1.6,2.3-1.6C350.7,565.2,351.6,566.2,351.6,568.4z M345.3,525.3c-6.3-11-14.9-16.5-25.8-16.5
			c-8.7,0-16.1,3.8-22.2,11.3c-6.1,7.5-9.2,16.6-9.2,27.3c0,5.8,1,11.3,2.9,16.5L345.3,525.3z"/>
		
			<linearGradient id="SVGID_00000010275784138111130060000009164142741433936561_" gradientUnits="userSpaceOnUse" x1="359.2092" y1="547.4641" x2="422.6984" y2="547.4641">
			<stop  offset="0.1625" style="stop-color:#3E6180"/>
			<stop  offset="0.8012" style="stop-color:#0A3D83"/>
		</linearGradient>
		<path style="fill:url(#SVGID_00000010275784138111130060000009164142741433936561_);" d="M422.7,517.7c0,2.2-0.9,3.4-2.7,3.4
			c0.3,0-2.2-2-7.5-6.1c-5.3-4.1-10.8-6.1-16.6-6.1c-8.7,0-16.1,3.8-22.2,11.3c-6.1,7.5-9.2,16.6-9.2,27.3s3.1,19.8,9.2,27.3
			s13.5,11.3,22.2,11.3c5.8,0,11.3-2,16.6-6.1c5.3-4.1,7.8-6.1,7.4-6.1c1.8,0,2.7,1.1,2.7,3.4c0,0.8-0.3,1.6-0.8,2.3
			c-6.6,8.8-15.2,13.2-25.9,13.2c-10.1,0-18.8-4.4-26-13.2c-7.2-8.8-10.7-19.5-10.7-32c0-12.5,3.6-23.2,10.7-32
			c7.2-8.8,15.8-13.2,26-13.2c10.6,0,19.3,4.4,26,13.2C422.4,516.2,422.7,517,422.7,517.7z"/>
		
			<linearGradient id="SVGID_00000151542751807306328600000000662903087897042356_" gradientUnits="userSpaceOnUse" x1="426.5026" y1="514.241" x2="596.1009" y2="662.7313">
			<stop  offset="0.1625" style="stop-color:#3E6180"/>
			<stop  offset="0.8012" style="stop-color:#0A3D83"/>
		</linearGradient>
		<path style="fill:url(#SVGID_00000151542751807306328600000000662903087897042356_);" d="M488.5,589.4c0,2.2-0.9,3.3-2.6,3.3
			c-1.8,0-2.6-1.1-2.6-3.3v-55.9c0-6.8-2-12.6-5.9-17.4c-3.9-4.8-8.7-7.3-14.2-7.3c-5.5,0-10.2,2.4-14.2,7.3
			c-3.9,4.8-5.9,10.7-5.9,17.4v55.9c0,2.2-0.9,3.3-2.6,3.3c-1.8,0-2.6-1.1-2.6-3.3V463.5c0-2.2,0.9-3.3,2.6-3.3
			c1.8,0,2.6,1.1,2.6,3.3v50.8c5.1-8.1,11.8-12.1,20.1-12.1c7,0,12.9,3.1,17.9,9.2c5,6.1,7.5,13.5,7.5,22.1V589.4z"/>
		
			<linearGradient id="SVGID_00000039126509155493728250000011349325863480862338_" gradientUnits="userSpaceOnUse" x1="507.4504" y1="526.4797" x2="569.5012" y2="526.4797">
			<stop  offset="0.1625" style="stop-color:#3E6180"/>
			<stop  offset="0.8012" style="stop-color:#0A3D83"/>
		</linearGradient>
		<path style="fill:url(#SVGID_00000039126509155493728250000011349325863480862338_);" d="M569.5,463.6c0,2.2-0.9,3.3-2.6,3.3
			h-54.1v56.3h42.8c1.8,0,2.6,1.1,2.6,3.3c0,2.2-0.9,3.3-2.6,3.3h-42.8v59.6c0,2.2-0.9,3.3-2.6,3.3c-1.8,0-2.6-1.1-2.6-3.3V463.5
			c0-2.2,0.9-3.3,2.6-3.3h56.8C568.6,460.3,569.5,461.4,569.5,463.6z"/>
		
			<linearGradient id="SVGID_00000011018904557654963280000017808100208123640755_" gradientUnits="userSpaceOnUse" x1="577.8986" y1="526.4797" x2="589.0988" y2="526.4797">
			<stop  offset="0.1625" style="stop-color:#3E6180"/>
			<stop  offset="0.8012" style="stop-color:#0A3D83"/>
		</linearGradient>
		<path style="fill:url(#SVGID_00000011018904557654963280000017808100208123640755_);" d="M589.1,467.2c0,4.4-1.9,6.6-5.6,6.6
			s-5.6-2.2-5.6-6.6c0-1.9,0.6-3.5,1.7-4.8c1.1-1.4,2.4-2.1,3.9-2.1c1.5,0,2.8,0.7,3.9,2.1C588.5,463.7,589.1,465.3,589.1,467.2z
			 M586.1,505.5v83.9c0,2.2-0.9,3.3-2.6,3.3s-2.6-1.1-2.6-3.3v-83.9c0-2.2,0.9-3.3,2.6-3.3S586.1,503.3,586.1,505.5z"/>
		
			<linearGradient id="SVGID_00000137132915311415523750000018069065027330691517_" gradientUnits="userSpaceOnUse" x1="608.8478" y1="547.4641" x2="659.549" y2="547.4641">
			<stop  offset="0.1625" style="stop-color:#3E6180"/>
			<stop  offset="0.8012" style="stop-color:#0A3D83"/>
		</linearGradient>
		<path style="fill:url(#SVGID_00000137132915311415523750000018069065027330691517_);" d="M659.5,589.4c0,2.2-0.9,3.3-2.6,3.3
			c-1.8,0-2.6-1.1-2.6-3.3v-55.9c0-6.8-2-12.6-5.9-17.4c-3.9-4.8-8.7-7.3-14.2-7.3c-5.5,0-10.2,2.4-14.2,7.3
			c-3.9,4.8-5.9,10.7-5.9,17.4v55.9c0,2.2-0.9,3.3-2.6,3.3s-2.6-1.1-2.6-3.3v-83.9c0-2.2,0.9-3.3,2.6-3.3s2.6,1.1,2.6,3.3v8.9
			c5.1-8.1,11.8-12.1,20.1-12.1c7,0,12.9,3.1,17.9,9.2c5,6.1,7.5,13.5,7.5,22.1V589.4z"/>
	</g>
</g>
<linearGradient id="SVGID_00000097492676284737394890000011293121505486774912_" gradientUnits="userSpaceOnUse" x1="781.118" y1="650.5105" x2="695.0544" y2="501.6301">
	<stop  offset="0.1718" style="stop-color:#002860"/>
	<stop  offset="0.447" style="stop-color:#00427B"/>
	<stop  offset="0.7119" style="stop-color:#00548D"/>
	<stop  offset="0.898" style="stop-color:#005A94"/>
</linearGradient>
<path style="fill:url(#SVGID_00000097492676284737394890000011293121505486774912_);" d="M703.9,534.8c8.8,14.2,37.7,68.5-10.2,99
	c-0.6,0.4-0.4,1.4,0.4,1.4c17.2,1.2,123.3,8.4,148.3-3.6c2.9-1.4,3.8-5.1,1.9-7.8c-3.9-5.6-13.5-17.4-36.8-40.5
	c0,0-62.7-57.1-101.6-52.8C703.9,530.8,702.8,533.1,703.9,534.8z"/>
<linearGradient id="SVGID_00000106861104319195198750000011539660804341261757_" gradientUnits="userSpaceOnUse" x1="884.5142" y1="626.243" x2="826.1208" y2="651.1436">
	<stop  offset="0.1718" style="stop-color:#004A85"/>
	<stop  offset="0.2277" style="stop-color:#13588D"/>
	<stop  offset="0.4031" style="stop-color:#497FA5"/>
	<stop  offset="0.5665" style="stop-color:#749DB8"/>
	<stop  offset="0.7129" style="stop-color:#93B4C5"/>
	<stop  offset="0.8372" style="stop-color:#A5C1CD"/>
	<stop  offset="0.9244" style="stop-color:#ACC6D0"/>
</linearGradient>
<path style="fill:url(#SVGID_00000106861104319195198750000011539660804341261757_);" d="M857.9,626c0,0,7.8,2.9,7.3,7.4
	c-0.5,4.4-6.3,13-57.7,18.1c0,0,26.7,1.1,54.2-4.9c0,0,16.3-3.9,20.3-10.4c0.6-1.1,0.9-2.3,0.7-3.5
	C882.4,629.4,878.8,623.3,857.9,626z"/>
<linearGradient id="SVGID_00000113352562697645757140000002037199269397870515_" gradientUnits="userSpaceOnUse" x1="449.5418" y1="611.6755" x2="693.3229" y2="611.6755">
	<stop  offset="0.2675" style="stop-color:#25C5E8"/>
	<stop  offset="0.8773" style="stop-color:#0C5793"/>
</linearGradient>
<path style="fill:url(#SVGID_00000113352562697645757140000002037199269397870515_);" d="M449.6,600.2c-0.1-0.5,0.4-0.9,0.9-0.7
	c6.4,4,28.9,16.5,108.8,3.1c1-0.2,10.2-2,12.7-2.4c19.1-3.1,23.2,0.4,52.2,7.2c0,0,31.1,11,68.2,3.1c0.7-0.1,1.1,0.7,0.6,1.1
	c-3.8,3.8-15.9,13.1-42.1,12.6c-3.4-0.1-15.2-1.8-18.6-2.3c-9.7-1.5-18.6-4.9-20.9-5.5c-4.3-1.1-17.7-5.4-24.6-6.2
	c-7.6-0.9-19.8,1.7-31.4,4c-5.8,1.1-11.6,2.1-17.4,2.8c-12.9,1.4-33.7,3.1-47.4,1.7C490.7,618.8,454,617.1,449.6,600.2z"/>
<linearGradient id="SVGID_00000059990136064515665050000007993555067246264205_" gradientUnits="userSpaceOnUse" x1="578.2386" y1="632.5456" x2="676.2751" y2="632.5456">
	<stop  offset="0.2675" style="stop-color:#25C5E8"/>
	<stop  offset="0.8773" style="stop-color:#0C5793"/>
</linearGradient>
<path style="fill:url(#SVGID_00000059990136064515665050000007993555067246264205_);" d="M578.4,624.9c-0.2-0.1-0.1-0.4,0.1-0.5
	c3.2-0.8,20.7-4.5,45.9,7.1c0,0,19.6,10,51.6,1.5c0.3-0.1,0.5,0.2,0.3,0.4c-2.4,2.3-11.6,9.7-31.9,8.2c-0.6,0-1.3-0.1-1.9-0.1
	c-2.4,0-11.3-0.5-24.1-7.3c0,0-9.6-5.9-28.3-7C582.4,627,579.4,625.6,578.4,624.9z"/>
</svg>