<svg xmlns="http://www.w3.org/2000/svg" viewBox="0 0 480 480" height="512" width="512"> <path d="M32 40h192v16H32zm0 32h96v16H32zm112 0h80v16h-80zM32 104h192v16H32zm0 32h192v16H32zm0 32h96v16H32zm112 0h80v16h-80zm336-32H368v-19.312L251.313 0H24C10.746 0 0 10.746 0 24v424c0 17.672 14.328 32 32 32h304a32 32 0 0 0 30.863-24H480zM256 27.313L340.688 112H264a8 8 0 0 1-8-8zM336 464H32c-8.836 0-16-7.164-16-16V24a8 8 0 0 1 8-8h216v88c0 13.254 10.746 24 24 24h88v8H240v320h109.777c-2.836 4.934-8.086 7.984-13.777 8zm128-24H256V152h208zm0 0"></path> <path d="m448 168h-176v64h176zm-16 48h-144v-32h144zm-112 32h-48v48h48zm-16 32h-16v-16h16z"></path> <path d="m336 296h48v-48h-48zm16-32h16v16h-16zm48 32h48v-48h-48zm16-32h16v16h-16zm-96 48h-48v48h48zm-16 32h-16v-16h16z"></path> <path d="m336 360h48v-48h-48zm16-32h16v16h-16zm48 96h48v-112h-48zm16-96h16v80h-16zm-96 48h-48v48h48zm-16 32h-16v-16h16z"></path> <path d="M336 424h48v-48h-48zm16-32h16v16h-16zM152 288h16c0-15.457-13.77-28.375-32-31.352V248h-16v8.648c-18.23 2.977-32 15.895-32 31.352s13.77 28.375 32 31.352v31.633c-9.199-2.266-16-8.176-16-14.984H88c0 15.457 13.77 28.375 32 31.352V376h16v-8.648c18.23-2.977 32-15.895 32-31.352s-13.77-28.375-32-31.352v-31.633c9.199 2.266 16 8.176 16 14.984zm-48 0c0-6.809 6.801-12.719 16-14.984v29.969c-9.199-2.266-16-8.176-16-14.984zm48 48c0 6.809-6.801 12.719-16 14.984v-29.969c9.199 2.266 16 8.176 16 14.984zm0 0"></path> <path d="m128 224c-48.602 0-88 39.398-88 88s39.398 88 88 88 88-39.398 88-88c-0.059-48.578-39.422-87.941-88-88zm0 160c-39.766 0-72-32.234-72-72s32.234-72 72-72 72 32.234 72 72c-0.043 39.746-32.254 71.957-72 72z"></path> </svg>