<?xml version="1.0" encoding="UTF-8"?> <svg xmlns="http://www.w3.org/2000/svg" version="1.0" viewBox="0 0 862.5 810"><defs><clipPath id="a"><path d="M695 692h42.6v42.5H695Zm0 0"></path></clipPath><clipPath id="b"><path d="M678.3 681.6H708V711h-29.7Zm0 0"></path></clipPath><clipPath id="c"><path d="M725 92h42.2v42.5H725Zm0 0"></path></clipPath><clipPath id="d"><path d="M708 81.6h29V111h-29Zm0 0"></path></clipPath><clipPath id="e"><path d="M231 .2h401V452H231Zm0 0"></path></clipPath><clipPath id="f"><path d="M416 352h416v457.8H416Zm0 0"></path></clipPath><clipPath id="g"><path d="M30.3 352H422v457.8H30.3Zm0 0"></path></clipPath><clipPath id="h"><path d="M158 330h42.8v42.3H158Zm0 0"></path></clipPath><clipPath id="i"><path d="M141.6 319.3H171V349h-29.4Zm0 0"></path></clipPath><clipPath id="j"><path d="M137.4 444.6H315v131.2H137.4Zm0 0"></path></clipPath><clipPath id="k"><path d="M361 93.2h149.8V237H361Zm0 0"></path></clipPath><clipPath id="l"><path d="M585.7 451.6H711V587H585.7Zm0 0"></path></clipPath></defs><g clip-path="url(#a)"><path fill="#fff" d="M706.3 704.4c1.6 1.7 3 3.5 4.5 5.3l2.4 2.9-7.2.3-10.3.7c-.5 0-.5.8 0 .8 3.5 0 6.9.4 10.3.6l7.2.3a40 40 0 0 0-2.2 2.6c-1.5 1.9-3 3.7-4.6 5.4-.4.4.2.9.6.6 1.7-1.6 3.5-3 5.3-4.4l2.9-2.4c0 2.3.2 4.7.4 7l.6 10.3c0 .5.8.5.8 0 0-3.5.3-7 .6-10.4l.2-7h.1l2.7 2.1 5.3 4.7c.5.5 1.2-.2.7-.7l-4.7-5-2.1-2.7-.3-.3c2.4 0 4.8-.4 7.2-.4l10.3-.5c.7 0 .7-1 0-1l-10.3-.2c-2.4 0-4.9-.3-7.2-.4l.2-.2 2-2.7 4.8-5.3a.5.5 0 0 0-.7-.7l-5.1 4.7-2.6 2.1-.3.3c-.2-2.4-.5-4.8-.5-7.2l-.5-10.2c0-.7-1-.7-1 0l-.2 10.2c0 2.4-.3 4.9-.4 7.3l-2.9-2.4c-1.8-1.5-3.7-3-5.4-4.6-.4-.4-1 0-.6.5Zm0 0"></path></g><g clip-path="url(#b)"><path fill="#fff" d="M678.7 696.4c3.6.2 7.3.7 11 1l-1 1.2c-1 1.2-1.8 2.5-3 3.7-.3.4.2.9.7.6 1.1-1 2.4-1.8 3.7-2.8l1.3-1c.2 3.6.8 7.2 1 10.9 0 .5.8.5.8 0 .1-3.7.7-7.4.9-11 .4.3 1 .6 1.3 1l3.5 3c.5.4 1.2-.2.8-.7l-3.1-3.4-1-1.5h.4l3.5-.5 7.1-.4c.6 0 .6-1 0-1-2.4 0-4.7-.1-7-.3-1.2 0-2.3-.3-3.4-.3l-.7-.1 1-1.4 3-3.6a.5.5 0 0 0-.6-.7l-3.5 3c-.4.5-.9.8-1.4 1.1v-.5l-.5-3.5-.4-7c0-.6-1-.6-1 0 0 2.4-.2 4.7-.3 7 0 1.2-.3 2.3-.4 3.4v.6l-1.3-1c-1.3-.9-2.6-1.8-3.8-2.9-.4-.3-.9.2-.6.6 1 1.1 1.9 2.4 2.8 3.7l1 1.3c-3.6.3-7.2.8-10.9 1-.4-.2-.4.5.1.5Zm0 0"></path></g><g clip-path="url(#c)"><path fill="#fff" d="M736 104.4a79 79 0 0 1 4.4 5.4l2.4 2.8c-2.3 0-4.7.2-7.1.4l-10.3.6c-.5 0-.5.8 0 .8 3.4 0 6.8.4 10.3.6 2.3.2 4.8.3 7.1.3l-2.2 2.6c-1.5 1.9-3 3.7-4.6 5.4-.3.4.3.9.6.6a80 80 0 0 1 5.4-4.4l2.8-2.4.4 7.1.6 10.2c0 .5.8.5.8 0 0-3.5.4-7 .6-10.3l.3-7c1 .7 2 1.3 2.8 2l5.3 4.7c.5.5 1.1-.2.7-.7l-4.7-5-2.2-2.7s-.1-.2-.3-.2c2.5-.2 4.8-.5 7.3-.5l10.3-.5c.6 0 .6-1 0-1l-10.3-.2c-2.5 0-5-.3-7.3-.4l.2-.2c.8-.9 1.3-1.9 2.1-2.7l4.7-5.3a.5.5 0 0 0-.7-.7l-5 4.7-2.7 2.1-.3.3-.5-7.2-.4-10.2c0-.7-1-.7-1 0l-.2 10.2-.5 7.3-2.8-2.4-5.5-4.6c-.3-.4-.9 0-.5.5Zm0 0"></path></g><g clip-path="url(#d)"><path fill="#fff" d="M708.3 96.4c3.7.2 7.3.7 11 1l-1 1.2-2.9 3.8c-.3.3.2.8.6.5 1.1-1 2.4-1.8 3.7-2.8l1.4-1c.2 3.6.8 7.2 1 10.9 0 .5.7.5.7 0 .1-3.7.7-7.4 1-11 .4.3.9.6 1.2 1l3.6 3c.5.4 1.1-.2.7-.7l-3-3.4c-.5-.5-.8-1-1.1-1.5h.5l3.5-.5 7-.4c.7 0 .7-1 0-1a82 82 0 0 1-7-.3c-1.2 0-2.3-.2-3.4-.3h-.6c.2-.6.5-1 1-1.5l3-3.6a.5.5 0 0 0-.7-.7l-3.4 3c-.4.5-1 .8-1.4 1.1l-.1-.5c-.2-1.2-.4-2.3-.4-3.4l-.5-7c0-.7-1-.7-1 0l-.3 7-.3 3.3v.6l-1.4-1c-1.3-.9-2.6-1.8-3.8-2.9-.3-.3-.8.2-.5.6 1 1.1 1.8 2.4 2.7 3.7l1.1 1.4c-3.6.2-7.3.7-11 .9-.4-.2-.4.5.1.5Zm0 0"></path></g><g clip-path="url(#e)"><path fill="#99dfec" d="m307.4 380.6 44.7-12.4 12.4 45.1 66.7 38.6 73.6-42.4 34 9.2 9.2-34.3 83.7-48.2V115.9L431.2.2 231 116v220.3Zm0 0"></path></g><g clip-path="url(#f)"><path fill="#55a7dc" d="M641.4 352.8 564.6 397l-12 45.2-45-12-66.8 38.2v85.2l-24.7 25.1 24.7 25V700l191 110.3 200-115.7V463.1Zm0 0"></path></g><g clip-path="url(#g)"><path fill="#d1e5f4" d="m421.5 611.6-32.7-32.8 32.7-32.8v-77.5L348 426l-9.3-34.4-34 9.3-83.2-48.2L30.4 463v231.4L231 810.2 421.5 700Zm0 0"></path></g><g clip-path="url(#h)"><path fill="#fff" d="m169.6 342.2 4.4 5.3 2.4 2.9-7.1.3-10.3.7c-.5 0-.5.8 0 .8 3.4 0 6.8.4 10.3.6l7.1.3a41 41 0 0 0-2.2 2.6c-1.5 1.9-3 3.7-4.6 5.4-.3.4.2.9.6.6 1.7-1.6 3.5-3 5.4-4.4l2.8-2.4.4 7 .6 10.3c0 .5.8.5.8 0 0-3.5.4-7 .6-10.4l.3-7c1 .8 2 1.3 2.8 2.1l5.3 4.7c.5.5 1.1-.2.7-.7l-4.7-5-2.2-2.7-.3-.3 7.2-.5 10.4-.4c.6 0 .6-1 0-1l-10.4-.2c-2.4 0-4.8-.3-7.2-.4l.2-.2c.8-.9 1.3-1.9 2.1-2.7l4.7-5.3c.5-.5-.2-1.1-.7-.7l-5 4.7-2.7 2.1-.3.3-.5-7.2-.4-10.2c0-.7-1-.7-1 0l-.2 10.2-.5 7.3a21 21 0 0 0-2.8-2.4c-1.9-1.5-3.8-3-5.5-4.6-.3-.4-.9 0-.5.5Zm0 0"></path></g><g clip-path="url(#i)"><path fill="#fff" d="M142 334.2c3.6.2 7.2.7 10.9 1l-1 1.2c-.9 1.2-1.8 2.5-2.9 3.7-.3.4.2.9.6.6 1.1-1 2.4-1.8 3.7-2.8l1.4-1c.2 3.6.8 7.2.9 10.8 0 .5.8.5.8 0 .1-3.7.7-7.3 1-11 .3.4.8.7 1.2 1l3.6 3c.5.5 1.1-.1.7-.6l-3-3.5c-.5-.4-.8-.9-1.2-1.4h.6l3.5-.5 7-.4c.7 0 .7-1 0-1a82 82 0 0 1-7-.3c-1.2 0-2.3-.3-3.4-.3l-.7-.1 1-1.4 3.1-3.6a.5.5 0 0 0-.7-.7l-3.4 3c-.4.5-1 .8-1.4 1.1l-.1-.5-.5-3.5c0-2.3-.2-4.7-.4-7 0-.6-1-.6-1 0a82 82 0 0 1-.3 7c0 1.2-.3 2.2-.3 3.4l-.1.6-1.3-1c-1.3-.9-2.6-1.8-3.8-2.9-.3-.3-.8.1-.6.6 1 1.1 2 2.4 2.8 3.7l1.1 1.3c-3.6.2-7.3.8-11 1-.4-.2-.4.5.1.5Zm0 0"></path></g><g clip-path="url(#j)"><path d="M249.4 444.6c-.9 0-1.6.3-2.2 1L234.5 458a3.1 3.1 0 0 0 0 4.5l2.6 2.6-33.6 33.4-2.5-2.5a3.2 3.2 0 0 0-4.5 0l-12.7 12.6a3.1 3.1 0 0 0 0 4.4l32 31.9a3.2 3.2 0 0 0 4.5 0l12.7-12.5a3.1 3.1 0 0 0 0-4.5l-2.7-2.6 10.5-10.5 61.4 59.8a3.2 3.2 0 0 0 4.5 0l7.4-7.6a3.1 3.1 0 0 0 0-4.4l-61.3-59.7 11.1-11 2.5 2.5a3.2 3.2 0 0 0 4.5 0l12.7-12.5a3.1 3.1 0 0 0 0-4.5l-32-31.9c-.5-.6-1.4-1-2.2-.9Zm0 7.6 27.5 27.4-8.2 8-2.4-2.3-.1-.1-11.8-11.8-13.2-13.1Zm-7.8 17.4 8.8 8.8 9 9-33.6 33.4-8.3-8.4-9.5-9.4Zm-42.9 33.1 2.5 2.4v.2l11.7 11.5 13.3 13.3-8.2 8-27.4-27.3Zm50.4 5.5 58.2 56.7-3 3-58.2-56.7Zm-89.9 50.5a3.2 3.2 0 1 0 0 6.3h68.2a3.2 3.2 0 1 0 0-6.3Zm-18.5 10.5a3.2 3.2 0 0 0-2.8 4.8c.6 1 1.6 1.5 2.8 1.5h105.2a3.2 3.2 0 1 0 0-6.3Zm0 0"></path></g><g clip-path="url(#k)"><path fill-rule="evenodd" d="M474.4 185.3h28.2a3 3 0 0 0 2.4-1.2 3 3 0 0 0 .5-2.7 21.5 21.5 0 0 0-25.8-14.6c-.5 6.6-2.3 13-5.3 18.5Zm-38.6-77.8a2.4 2.4 0 1 1-4.9 0V95.6a2.4 2.4 0 1 1 4.9 0Zm-21.7 2.8c.8 1 .6 2.5-.4 3.4-1 .8-2.6.6-3.4-.4l-7.3-9.4c-.9-1-.7-2.6.4-3.4 1-.8 2.5-.6 3.4.4Zm42.3 3a2.4 2.4 0 1 1-3.8-3l7.3-9.4a2.4 2.4 0 1 1 3.8 3Zm-23 8.5a41.7 41.7 0 0 1 34 65.6l13 12.7.6-.5a3.8 3.8 0 0 1 5.3 0l22.9 22.2a3.8 3.8 0 0 1 0 5.3l-8.2 8.6a3.8 3.8 0 0 1-5.4 0l-22.8-22.2a3.8 3.8 0 0 1-.1-5.3l.4-.5-12.7-12.5a41.7 41.7 0 1 1-27-73.4Zm0 22a10.4 10.4 0 1 0 0 21 10.4 10.4 0 0 0 0-21Zm0-7.5a27.2 27.2 0 0 0-20 45.6 20.7 20.7 0 0 1 40 0 27.1 27.1 0 0 0-20-45.6Zm0-4.8a32 32 0 1 0 0 64 32 32 0 0 0 0-64Zm-51.6 11.1c3.3 0 6.3 1.5 8.3 4-2 5-3.1 10.6-3.2 16.5a11 11 0 0 1-5.1 1.2 10.9 10.9 0 0 1 0-21.7ZM364 185.3h28.2c-3-5.6-4.8-11.9-5.3-18.5a21.5 21.5 0 0 0-25.8 14.6 3 3 0 0 0 .5 2.7 3 3 0 0 0 2.4 1.2Zm121-42.7c-3.3 0-6.3 1.5-8.3 4 2 5 3.1 10.6 3.2 16.5a11 11 0 0 0 5.1 1.2 10.9 10.9 0 0 0 0-21.7Zm0 0"></path></g><g clip-path="url(#l)"><path d="M600.2 479.9h55a2.3 2.3 0 0 0 2-1l.3-1.3v-12.1a2.3 2.3 0 0 0-2.3-2.3h-55a2.3 2.3 0 0 0-2 1.4l-.3.9v12a2.2 2.2 0 0 0 .7 1.7 2.4 2.4 0 0 0 1.6.7Zm2.4-12.1h50.3v7.4h-50.3ZM608 531h-7.9a2.2 2.2 0 0 0-1.6.7 2.3 2.3 0 0 0-.7 1.7v7.6a2.2 2.2 0 0 0 .7 1.7 2.4 2.4 0 0 0 1.6.7h8c.2 0 .5 0 .8-.2a2.3 2.3 0 0 0 1.4-2.2v-7.6l-.1-1a2.3 2.3 0 0 0-1.3-1.2l-.9-.2Zm-2.3 7.7h-3.2v-3h3.2Zm57.6-16a7 7 0 0 1 3.6-1.9v-1.3a2.3 2.3 0 0 1 .7-1.7 2.3 2.3 0 0 1 2.5-.5 2.3 2.3 0 0 1 1.3 1.3c.1.3.2.6.1.9v1.3a6.4 6.4 0 0 1 3.6 1.9 6.4 6.4 0 0 1 2 4.6 2.3 2.3 0 1 1-4.7 0l-.1-.6c-.1-.3-.2-.5-.5-.7-.3-.4-.8-.6-1.3-.6H668a2 2 0 0 0-1.7.9 2 2 0 0 0-.3 1.2c0 .5.3.9.6 1.2.4.4.8.6 1.4.6h2.5a6.4 6.4 0 0 1 4.6 2l.2.1c.8.9 1.3 1.9 1.6 3l.2 1.5a6.5 6.5 0 0 1-2 4.7c-1 1-2.2 1.6-3.6 1.8v1.4a2.3 2.3 0 0 1-1.4 2.2 2.3 2.3 0 0 1-2.5-.5 2.3 2.3 0 0 1-.7-1.7v-1.4a6.6 6.6 0 0 1-5-4c-.4-.8-.5-1.6-.5-2.5a2.3 2.3 0 0 1 4-1.6 2.3 2.3 0 0 1 .6 1.6c0 .6.2 1 .6 1.4.4.4.8.6 1.4.6h2.5a2 2 0 0 0 2-2 2 2 0 0 0-.6-1.3 2 2 0 0 0-1.4-.6H668a6.6 6.6 0 0 1-4.7-2v-.1a6.7 6.7 0 0 1-1.9-4.6 6.6 6.6 0 0 1 2-4.6Zm-8.2-37.7h-7.8a2.3 2.3 0 0 0-1.7.7 2.3 2.3 0 0 0-.6 1.6v7.7a2.3 2.3 0 0 0 2.3 2.3h7.8a2.3 2.3 0 0 0 1.7-.7 2.3 2.3 0 0 0 .6-1.6v-7.7a2.3 2.3 0 0 0-2.3-2.3Zm-2.3 7.6h-3.2v-3h3.2Zm2.3 7.7h-7.8a2.4 2.4 0 0 0-1.7.7 2.3 2.3 0 0 0-.6 1.6v7.7a2.3 2.3 0 0 0 1.4 2.2l.9.1h7.8a2.3 2.3 0 0 0 1.5-.5 2.3 2.3 0 0 0 .8-1.8v-7.6a2.3 2.3 0 0 0-2.3-2.4Zm-2.3 7.7h-3.2v-3h3.2Zm57.8 64.3v-95.7a2.3 2.3 0 0 0-.6-1.6 2.3 2.3 0 0 0-1.7-.7h-38.6v-13.8a8.7 8.7 0 0 0-4-7.3 8.7 8.7 0 0 0-4.8-1.5h-66.5a9 9 0 0 0-4.9 1.5 8.7 8.7 0 0 0-3.9 7.3V546a9 9 0 0 0 2.6 6.3 8.7 8.7 0 0 0 6.2 2.5h8.5v29.9a2.1 2.1 0 0 0 .3 1 2.3 2.3 0 0 0 1.3 1.2 2.2 2.2 0 0 0 1.7-.1h59.5a2.2 2.2 0 0 0 1.5-.5 2.1 2.1 0 0 0 .7-1.4l.2-.7v-8.7h40.4a2.2 2.2 0 0 0 1.5-.6 2.3 2.3 0 0 0 .6-.9 2.2 2.2 0 0 0 .1-1l-.1-.6Zm-35-58a20.2 20.2 0 0 1 6.6 4.3 18.4 18.4 0 0 1 5.3 13 18.4 18.4 0 0 1-20.5 18.3 18 18 0 0 1-5.3-1.5v-.2h-.5l-.7-.4c-1-.5-2-1.2-3-2a3 3 0 0 0-.4-.3l-.2-.3-.5-.4-.1-.1-1.6-1.8-.1-.2-.5-.7-.2-.4-.2-.2-.1-.2-.8-1.5-.1-.3-.3-.5-.2-.5-.1-.3-.3-.9-.2-.8-.1-.3-.2-.6-.1-1-.1-.8v-.3l-.1-.4v-3.5l.6-2.7.1-.5.3-.9.1-.3a7 7 0 0 1 .4-.8c0-.2 0-.3.2-.5l.1-.3.3-.5v-.3h.1a7.2 7.2 0 0 1 .5-.7l.1-.4.2-.2.4-.5.3-.5.3-.3.3-.4 1-1.1c2.2-2.1 4.7-3.6 7.5-4.6a20.3 20.3 0 0 1 11.7.3ZM595 550.2h-.6a4 4 0 0 1-2.3-.7 4.2 4.2 0 0 1-1.8-2.6v-86.3a4 4 0 0 1 1.2-3 4 4 0 0 1 2.9-1.2H661a4 4 0 0 1 1.6.4 4.2 4.2 0 0 1 2.5 3.8V509a19 19 0 0 0-4.1 1.1l-.2.1-.7.3a21.4 21.4 0 0 0-4.6 2.8l-.6.4-.3.3-.3.2a6.9 6.9 0 0 0-.7.7l-.5.4c0 .2-.2.3-.3.4h-5.4a2.3 2.3 0 0 0-1.7.7 2.3 2.3 0 0 0-.6 1.6v7.7c0 .5.1 1 .4 1.4.3.4.7.7 1.2.8v.7l-.1.4-.1 1.2v1.2c-.5.2-.8.4-1 .8a2 2 0 0 0-.4 1.3v7.7a2.3 2.3 0 0 0 1.4 2l.9.3h2.2l.9 1.4.2.3.4.5v.1a21.8 21.8 0 0 0 4.5 4.4Zm68.4 32h-55.8v-27.4H632v2.7h-15.5l-1 .2a2.3 2.3 0 0 0-1.4 2.2 2.3 2.3 0 0 0 2.4 2.3H632v6.2h-15.8a2.3 2.3 0 0 0-2.3 2.3 2.3 2.3 0 0 0 2.3 2.4H632v.1c0 .6.2 1.1.6 1.6h.1v.1c.5.4 1 .6 1.6.6h29.2Zm42.6-11.3h-69.4v-16H661a8.2 8.2 0 0 0 3.1-.7 22.8 22.8 0 0 0 25-10.8h8.5a2.3 2.3 0 0 0 1.7-.7 2.3 2.3 0 0 0 .6-2.6 2.4 2.4 0 0 0-2.3-1.4h-6.4a23.2 23.2 0 0 0-3.5-20.7h10a2.3 2.3 0 0 0 1.6-.7 2.3 2.3 0 0 0 .7-1.7 2.3 2.3 0 0 0-.7-1.7 2.3 2.3 0 0 0-1.7-.7H683c-2-1.4-4-2.6-6.3-3.3H689a2.3 2.3 0 0 0 1.7-.7 2.4 2.4 0 0 0 .5-2.6 2.4 2.4 0 0 0-2.2-1.5h-19.2v-3.4H689a2.4 2.4 0 0 0 1.7-.6 2.3 2.3 0 0 0 .5-2.6 2.4 2.4 0 0 0-2.2-1.5h-19.2v-17.9H706v90.1ZM608 485h-7.9a2.3 2.3 0 0 0-2.3 2.3v7.7c0 .3 0 .6.2.9a2.3 2.3 0 0 0 1.3 1.2l.8.2h8a2.3 2.3 0 0 0 2.2-2.3v-7.7l-.1-.9-.6-.7a2.3 2.3 0 0 0-1.6-.7Zm-2.3 7.7h-3.2v-3h3.2Zm33.7 23h-7.8a2.4 2.4 0 0 0-1.7.7 2.3 2.3 0 0 0-.6 1.6v7.7a2.3 2.3 0 0 0 2.3 2.3h7.8a2.3 2.3 0 0 0 2.2-1.4l.1-1V518a2.3 2.3 0 0 0-.6-1.6 2.4 2.4 0 0 0-1.7-.7Zm-2.3 7.7H634v-3h3.2Zm-13.4-7.7H616a2.3 2.3 0 0 0-2.3 2.3v7.7a2.3 2.3 0 0 0 2.3 2.3h7.9c.3 0 .6 0 .9-.2a2.3 2.3 0 0 0 1.4-2.1V518a2.4 2.4 0 0 0-.7-1.6 2.3 2.3 0 0 0-1.6-.7Zm-2.3 7.7h-3.2v-3h3.2Zm-13.4-7.7h-7.9c-.3 0-.6 0-.8.2a2.3 2.3 0 0 0-1.5 2.1v7.7a2.2 2.2 0 0 0 .7 1.6 2.3 2.3 0 0 0 1.6.7h8a2.3 2.3 0 0 0 2.2-2.3V518l-.1-.9a2.3 2.3 0 0 0-2.2-1.4Zm-2.3 7.7h-3.2v-3h3.2Zm18-23H616a2.4 2.4 0 0 0-1.6.6 2.3 2.3 0 0 0-.7 1.7v7.6a2.3 2.3 0 0 0 1.5 2.2l.8.1h7.9a2.3 2.3 0 0 0 2.3-2.3v-7.6c0-.4 0-.6-.2-1a2.4 2.4 0 0 0-2-1.4Zm-2.3 7.6h-3.2v-3h3.2Zm18 23h-7.8l-1 .2a2.3 2.3 0 0 0-1.3 2.2v7.6a2.3 2.3 0 0 0 .6 1.7l.8.5.9.2h7.8a2.3 2.3 0 0 0 2.2-1.5l.1-.9v-7.6a2.3 2.3 0 0 0-.6-1.7 2.3 2.3 0 0 0-1.7-.7Zm-2.3 7.7H634v-3h3.2Zm-13.4-7.7H616a2.3 2.3 0 0 0-2.3 2.4v7.6a2.3 2.3 0 0 0 1.5 2.2l.8.2h8a2.3 2.3 0 0 0 2.2-2.4v-7.6a2.3 2.3 0 0 0-2.3-2.4Zm-2.3 7.7h-3.2v-3h3.2Zm18-38.4h-7.8c-.3 0-.6 0-1 .2a2.3 2.3 0 0 0-1.3 2.2v7.6a2.3 2.3 0 0 0 .6 1.7l.8.5.9.1h7.8a2.3 2.3 0 0 0 2.2-1.4l.1-.9v-7.6a2.4 2.4 0 0 0-.6-1.7 2.3 2.3 0 0 0-1.7-.7Zm-2.3 7.7H634v-3h3.2Zm-29-7.7h-8a2.2 2.2 0 0 0-1.6.7 2.3 2.3 0 0 0-.7 1.7v7.6c0 .3 0 .6.2 1a2.3 2.3 0 0 0 1.3 1.2l.8.1h8a2.3 2.3 0 0 0 2.2-2.3v-7.6l-.1-1a2.3 2.3 0 0 0-1.3-1.2l-.9-.2Zm-2.4 7.7h-3.2v-3h3.2Zm33.7-23h-7.8l-1 .1a2.3 2.3 0 0 0-1.3 2.2v7.7a2.3 2.3 0 0 0 .6 1.6 2.3 2.3 0 0 0 1.7.7h7.8a2.3 2.3 0 0 0 2.2-1.4l.1-1v-7.6c0-.6-.2-1-.5-1.5-.5-.6-1-.8-1.8-.8Zm-2.3 7.6H634v-3h3.2Zm-13.4-7.6H616l-.8.1a2.3 2.3 0 0 0-1.5 2.2v7.7a2.3 2.3 0 0 0 1.5 2.1l.8.2h7.9a2.3 2.3 0 0 0 2.1-1.4c.2-.3.2-.6.2-1v-7.6a2.4 2.4 0 0 0-.7-1.6c-.2-.3-.4-.4-.7-.5-.3-.2-.6-.2-.9-.2Zm-2.3 7.6h-3.2v-3h3.2Zm77.1 70.3h-52.9a2.4 2.4 0 0 1-2-1.4 2.4 2.4 0 0 1 0-1.8 2.3 2.3 0 0 1 2-1.4h53a2.3 2.3 0 0 1 1.6.7l.5.7a2.3 2.3 0 0 1 0 1.8l-.5.8a2.3 2.3 0 0 1-1.7.7Zm0 0"></path></g><path d="M168.1 633.3v-33.9h7.2v28H189v5.9ZM205 607c2.4 0 4.5.4 6.2 1.3 1.7 1 3 2.3 4 4 1 1.7 1.4 3.9 1.4 6.4v3.4H200a7 7 0 0 0 1.8 4.7 6.3 6.3 0 0 0 4.7 1.7 19.1 19.1 0 0 0 8.8-2v5.4a17 17 0 0 1-4 1.4c-1.5.3-3.1.5-5.1.5-2.6 0-5-.5-7-1.5s-3.5-2.4-4.6-4.3c-1.2-2-1.7-4.5-1.7-7.5s.5-5.5 1.5-7.5 2.5-3.5 4.3-4.6c1.8-1 4-1.5 6.4-1.5Zm0 5c-1.3 0-2.4.4-3.4 1.3-.9.9-1.4 2.2-1.5 4.1h10c-.1-1-.3-2-.7-2.8a5 5 0 0 0-1.6-2c-.7-.4-1.6-.6-2.7-.6Zm25 32.7a15 15 0 0 1-8.3-1.9 6 6 0 0 1-2.9-5.3c0-1.5.5-2.8 1.5-3.9 1-1 2.4-1.8 4.2-2.2-.7-.3-1.3-.9-1.9-1.5-.5-.8-.8-1.5-.8-2.3 0-1 .3-1.8.9-2.5a10 10 0 0 1 2.5-1.9 7 7 0 0 1-3.3-2.8 8.7 8.7 0 0 1-1.2-4.6 9 9 0 0 1 1.3-4.8c.8-1.3 2-2.3 3.6-3a14.3 14.3 0 0 1 7.4-1 32.4 32.4 0 0 1 2.9.4h9v3.6l-4 1a6.8 6.8 0 0 1 1 4 8 8 0 0 1-2.8 6.4c-2 1.6-4.7 2.4-8.1 2.4l-2.3-.2c-.4.3-.7.5-.9.9l-.2 1c0 .3.1.5.4.8.3.2.7.4 1.3.5l2.2.2h4.4c2.8 0 5 .6 6.5 1.8 1.5 1.2 2.2 3 2.2 5.4a8 8 0 0 1-3.8 7 19.7 19.7 0 0 1-10.9 2.5Zm.2-4.6a17 17 0 0 0 4.4-.5c1.2-.3 2.1-.8 2.8-1.3a3 3 0 0 0 1-2.1 2 2 0 0 0-.6-1.6c-.4-.3-1-.6-1.7-.7-.8-.2-1.8-.3-3-.3h-3.6c-.9 0-1.7.2-2.4.4a4 4 0 0 0-1.6 1.2c-.4.5-.6 1-.6 1.8 0 1 .5 1.7 1.4 2.3 1 .5 2.3.8 4 .8Zm1.2-19.6c1.3 0 2.3-.5 2.9-1.3.6-.8 1-1.9 1-3.3 0-1.6-.4-2.7-1-3.5-.7-.8-1.6-1.2-3-1.2-1.2 0-2.2.4-2.8 1.2-.7.8-1 2-1 3.5 0 1.4.3 2.5 1 3.3.6.8 1.6 1.3 2.9 1.3Zm28.4-13.6c3.4 0 6 .7 8 2.3 1.8 1.5 2.7 3.8 2.7 6.9v17.2h-5l-1.3-3.5h-.2a13 13 0 0 1-2.2 2.3c-.8.5-1.7 1-2.7 1.3-1 .2-2.2.4-3.7.4s-2.9-.3-4-.9a6.6 6.6 0 0 1-3-2.7c-.6-1.2-1-2.8-1-4.6 0-2.8 1-4.8 3-6.1a17 17 0 0 1 8.6-2.2l4.5-.1V616c0-1.4-.3-2.4-1-3-.8-.7-1.8-1-3-1a15 15 0 0 0-3.7.5l-3.6 1.4-2.3-4.8a22.4 22.4 0 0 1 10-2.3Zm3.7 14.4-2.7.1c-2.3 0-3.9.5-4.8 1.2-.9.8-1.3 1.8-1.3 3 0 1.1.3 1.9 1 2.3.6.5 1.4.7 2.4.7 1.5 0 2.8-.4 3.8-1.3 1-1 1.6-2.2 1.6-3.9Zm21.4 12h-7.1v-36h7ZM154 689.1c0 2-.6 3.8-1.5 5.3a9.3 9.3 0 0 1-4.3 3.4 17 17 0 0 1-6.8 1.2 25 25 0 0 1-6.6-1c-1-.2-2-.6-3-1v-6.7l5 2c1.8.5 3.5.8 5.2.8a7 7 0 0 0 2.8-.5c.8-.3 1.3-.7 1.6-1.3.3-.5.5-1.1.5-1.8a3 3 0 0 0-.9-2.2 9 9 0 0 0-2.3-1.7 120.7 120.7 0 0 0-6-3c-.9-.6-1.8-1.2-2.6-2a9.3 9.3 0 0 1-2-2.8 9 9 0 0 1-.9-4c0-2 .5-3.7 1.4-5.2a10 10 0 0 1 4-3.3 15 15 0 0 1 6.1-1.1c1.8 0 3.4.2 5 .6 1.6.4 3.3 1 5 1.8l-2.3 5.5-4.2-1.4a14 14 0 0 0-3.7-.5 5 5 0 0 0-2.3.4 3.1 3.1 0 0 0-2 3c0 .8.3 1.5.8 2 .4.6 1.1 1 2.1 1.6a75 75 0 0 0 3.6 1.8c1.7.8 3.2 1.7 4.4 2.5 1.2 1 2.2 2 2.8 3.2a9 9 0 0 1 1 4.4Zm16.2-17c2.4 0 4.4.5 6.2 1.4 1.7 1 3 2.3 4 4a14 14 0 0 1 1.4 6.4v3.4H165c0 2 .7 3.6 1.8 4.7a6.3 6.3 0 0 0 4.6 1.7 19.1 19.1 0 0 0 8.8-2v5.5a17 17 0 0 1-4 1.3c-1.4.3-3.1.5-5 .5-2.7 0-5-.5-7-1.4-2-1-3.5-2.5-4.7-4.4-1.1-2-1.7-4.5-1.7-7.4 0-3 .5-5.6 1.5-7.6s2.5-3.5 4.3-4.5c1.9-1 4-1.6 6.5-1.6Zm0 5c-1.4 0-2.5.5-3.4 1.4-1 .9-1.4 2.3-1.6 4.1h10c0-1-.3-2-.6-2.7-.4-.9-1-1.5-1.6-2a5 5 0 0 0-2.8-.7Zm31.8-5a15.3 15.3 0 0 1 2.3.3l-.5 6.6-1-.2h-1c-1 0-1.9 0-2.7.3-.9.2-1.7.6-2.3 1.1-.7.5-1.2 1.2-1.6 2a8 8 0 0 0-.6 3.2v13.1h-7v-25.9h5.3l1 4.4h.3c.5-.9 1.2-1.7 2-2.4a8 8 0 0 1 5.8-2.5Zm13.2 26.4-9.9-25.9h7.4l5 14.8.7 2.7.3 2.6h.2a20.6 20.6 0 0 1 1-5.3l5-14.8h7.4l-9.9 26Zm27.8-25.9v26h-7v-26Zm-3.4-10.1c1 0 2 .2 2.7.7.7.5 1.1 1.4 1.1 2.7 0 1.4-.4 2.3-1.1 2.8a5 5 0 0 1-2.7.7 5 5 0 0 1-2.8-.7c-.7-.5-1-1.4-1-2.8 0-1.3.3-2.2 1-2.7a5 5 0 0 1 2.8-.7ZM261 699c-2.6 0-4.8-.5-6.6-1.4a9.3 9.3 0 0 1-4-4.4c-1-2-1.5-4.4-1.5-7.5 0-3.1.5-5.7 1.6-7.7 1-2 2.6-3.5 4.5-4.4a14 14 0 0 1 6.6-1.5 18 18 0 0 1 8 1.8l-2 5.5a34 34 0 0 0-3.1-1.1c-1-.3-2-.4-2.9-.4-1.2 0-2.3.2-3 .8a5 5 0 0 0-1.9 2.6c-.4 1.2-.6 2.6-.6 4.4 0 1.7.2 3.1.6 4.2.5 1.2 1.1 2 2 2.5.7.6 1.7.9 3 .9 1.4 0 2.7-.2 3.8-.6a15 15 0 0 0 3.4-1.7v6a9.3 9.3 0 0 1-3.4 1.5c-1.2.3-2.7.5-4.5.5Zm24.5-26.9c2.4 0 4.5.5 6.2 1.4 1.7 1 3 2.3 4 4 1 1.8 1.4 3.9 1.4 6.4v3.4h-16.7a7 7 0 0 0 1.8 4.7 6.3 6.3 0 0 0 4.7 1.7 19.1 19.1 0 0 0 8.8-2v5.5a17 17 0 0 1-4 1.3c-1.4.3-3.1.5-5.1.5-2.6 0-5-.5-7-1.4-2-1-3.5-2.5-4.6-4.4-1.2-2-1.7-4.5-1.7-7.4 0-3 .5-5.6 1.5-7.6s2.5-3.5 4.3-4.5c1.9-1 4-1.6 6.4-1.6Zm0 5c-1.3 0-2.4.5-3.3 1.4-1 .9-1.5 2.3-1.6 4.1h10c-.1-1-.3-2-.7-2.7a4 4 0 0 0-1.6-2c-.7-.5-1.6-.7-2.7-.7Zm35.5 13.7a8 8 0 0 1-1.3 4.5c-.8 1.2-2 2.1-3.7 2.8a26 26 0 0 1-10.8.6l-3.9-1.2v-5.9a26.8 26.8 0 0 0 8.8 2.2c1.4 0 2.4-.2 3-.6.6-.4.9-1 .9-1.6a2 2 0 0 0-.4-1.2 4 4 0 0 0-1.5-1.1l-3.7-1.8c-1.7-.7-3-1.3-4-2a7 7 0 0 1-2.4-2.5 8 8 0 0 1-.7-3.6 6 6 0 0 1 2.8-5.4c1.8-1.2 4.3-1.9 7.5-1.9a21.4 21.4 0 0 1 9 2l-2 5.2-3.7-1.4c-1.1-.3-2.3-.5-3.5-.5-1 0-1.8.1-2.3.4-.5.3-.8.7-.8 1.3 0 .4.1.8.4 1 .3.4.8.8 1.6 1.2l3.4 1.5c1.5.6 2.8 1.2 3.8 1.9 1.1.6 2 1.4 2.5 2.4a7 7 0 0 1 1 3.7Zm-19.8-441.3c3 0 5.6.3 7.6 1 2 .8 3.5 2 4.5 3.5 1 1.4 1.4 3.3 1.4 5.6a9 9 0 0 1-3.2 7c-1 .8-2 1.5-3 2l9.9 14.7h-8l-8-13h-3.9v13h-7.2v-33.8Zm-.5 5.9h-2.2v9.1h2.3c2.4 0 4-.4 5.1-1.2 1-.8 1.6-2 1.6-3.5 0-1.6-.6-2.7-1.7-3.4-1-.7-2.8-1-5.1-1Zm32 1.6c2.4 0 4.5.4 6.2 1.3 1.8 1 3 2.3 4 4 1 1.8 1.5 3.9 1.5 6.4v3.4h-16.8a7 7 0 0 0 1.8 4.7 6.3 6.3 0 0 0 4.7 1.7 19.1 19.1 0 0 0 8.8-2v5.5a17 17 0 0 1-4 1.3c-1.4.3-3.1.5-5.1.5-2.6 0-4.9-.5-6.9-1.4-2-1-3.6-2.5-4.7-4.4-1.1-2-1.7-4.5-1.7-7.4 0-3 .5-5.6 1.5-7.6s2.5-3.5 4.3-4.5c1.9-1 4-1.5 6.4-1.5Zm0 5c-1.3 0-2.4.4-3.3 1.3-1 .9-1.4 2.3-1.6 4.1h10c-.1-1-.3-2-.7-2.7-.3-.9-.8-1.5-1.6-2-.7-.5-1.6-.7-2.7-.7Zm27.9 21.8c-2.6 0-4.8-.5-6.6-1.4a9.3 9.3 0 0 1-4-4.4c-1-2-1.5-4.4-1.5-7.5 0-3.1.5-5.7 1.6-7.7 1-2 2.6-3.5 4.5-4.4a18 18 0 0 1 14.7.3l-2.1 5.5a34 34 0 0 0-3.1-1.1c-1-.3-2-.4-2.9-.4-1.2 0-2.2.3-3 .8a5 5 0 0 0-1.9 2.6c-.4 1.2-.6 2.6-.6 4.4 0 1.7.2 3.1.6 4.2.5 1.2 1.1 2 2 2.6.7.5 1.7.8 3 .8 1.4 0 2.7-.2 3.8-.6a15 15 0 0 0 3.4-1.7v6a9.3 9.3 0 0 1-3.4 1.5c-1.2.3-2.7.5-4.5.5ZM389 257a15.3 15.3 0 0 1 2.3.2l-.5 6.6-1-.2h-1.1c-1 0-1.8 0-2.7.3a7 7 0 0 0-2.3 1.1c-.7.5-1.2 1.2-1.6 2-.4 1-.6 2-.6 3.2v13.1h-7v-25.9h5.3l1 4.4h.4c.5-.9 1.1-1.7 1.9-2.4.8-.8 1.6-1.3 2.6-1.8 1-.4 2-.6 3.2-.6Zm30.8.4v26h-5.5l-1-3.4h-.3a7 7 0 0 1-2 2.2 9 9 0 0 1-2.8 1.2c-1 .3-2 .4-3.1.4-1.9 0-3.5-.3-4.9-1a7.1 7.1 0 0 1-3.2-3c-.8-1.4-1.1-3.3-1.1-5.5v-16.9h7v15.2c0 1.8.3 3.2 1 4.2.7.9 1.7 1.4 3.2 1.4a6 6 0 0 0 3.4-1c.8-.7 1.4-1.6 1.7-2.9.3-1.3.5-2.8.5-4.7v-12.2Zm14.4 0v26h-7v-26Zm-3.5-10.1c1 0 2 .2 2.7.7.8.5 1.1 1.4 1.1 2.8 0 1.3-.3 2.2-1 2.7a5 5 0 0 1-2.8.7c-1 0-2-.2-2.7-.7-.8-.5-1.1-1.4-1.1-2.7 0-1.4.3-2.3 1-2.8a5 5 0 0 1 2.8-.7Zm21.8 30.9a23.5 23.5 0 0 0 4.5-.8v5.2c-.8.4-1.7.6-2.8.9-1.2.2-2.4.3-3.7.3-1.6 0-3-.3-4.2-.8a5.9 5.9 0 0 1-2.9-2.6c-.7-1.2-1-3-1-5.2v-12.4H439v-3l4-2.4 2-5.5h4.5v5.5h7.2v5.4h-7.2v12.4c0 1 .2 1.8.8 2.2.6.5 1.3.8 2.2.8Zm40.1-21.2c3 0 5.2.7 6.7 2.2 1.5 1.5 2.2 4 2.2 7.3v16.8h-7v-15.1c0-1.8-.4-3.2-1-4.2s-1.6-1.4-3-1.4c-1.8 0-3.1.7-4 2-.7 1.3-1.1 3.3-1.1 5.7v13h-7v-15.1c0-1.2-.2-2.3-.5-3-.3-1-.7-1.5-1.3-2-.5-.4-1.3-.6-2.2-.6-1.3 0-2.3.3-3 1-.8.7-1.3 1.6-1.7 2.9a21 21 0 0 0-.4 4.7v12.1h-7v-25.9h5.3l1 3.4h.3a7 7 0 0 1 2-2.2c.8-.6 1.7-1 2.7-1.3a14.3 14.3 0 0 1 7.7.6c1.3.6 2.3 1.6 3 2.9h.7a6.8 6.8 0 0 1 3.2-3 11 11 0 0 1 4.4-.8Zm26.8 0c2.4 0 4.5.4 6.2 1.3 1.8 1 3 2.3 4 4 1 1.8 1.4 3.9 1.4 6.4v3.4h-16.7a7 7 0 0 0 1.8 4.7 6.3 6.3 0 0 0 4.7 1.7 19.1 19.1 0 0 0 8.8-2v5.5a17 17 0 0 1-4 1.3c-1.4.3-3.1.5-5.1.5-2.6 0-5-.5-7-1.4-2-1-3.5-2.5-4.6-4.4-1.1-2-1.7-4.5-1.7-7.4 0-3 .5-5.6 1.5-7.6s2.5-3.5 4.3-4.5c1.9-1 4-1.5 6.4-1.5Zm0 5c-1.3 0-2.4.4-3.3 1.3-1 .9-1.5 2.3-1.6 4.1h10c-.1-1-.3-2-.7-2.7-.3-.9-.8-1.5-1.6-2-.7-.5-1.6-.7-2.7-.7Zm32.1-5c2.7 0 5 .7 6.6 2.2 1.7 1.5 2.6 4 2.6 7.3v16.8h-7v-15.1c0-1.8-.4-3.2-1-4.2-.8-1-1.8-1.4-3.2-1.4-2.2 0-3.7.7-4.5 2.2-.8 1.5-1.2 3.6-1.2 6.4v12.1h-7v-25.9h5.4l1 3.4h.3c.6-1 1.3-1.7 2-2.2 1-.6 1.8-1 2.8-1.3 1-.2 2.1-.3 3.2-.3Zm27.3 21.2a23.5 23.5 0 0 0 4.5-.8v5.2c-.8.4-1.7.6-2.8.9-1.1.2-2.4.3-3.7.3-1.5 0-3-.3-4.2-.8a5.9 5.9 0 0 1-2.8-2.6c-.7-1.2-1-3-1-5.2v-12.4h-3.5v-3l4-2.4 2-5.5h4.5v5.5h7.2v5.4h-7.2v12.4c0 1 .3 1.8.8 2.2.6.5 1.3.8 2.2.8Zm-215.1 60.9c0 2-.5 3.8-1.5 5.3a9.3 9.3 0 0 1-4.3 3.4 17 17 0 0 1-6.7 1.2 25 25 0 0 1-6.7-.9l-3-1.1v-6.7l5 2c1.8.5 3.5.8 5.2.8a8 8 0 0 0 2.9-.5c.7-.3 1.2-.7 1.5-1.3.3-.5.5-1.1.5-1.8a3 3 0 0 0-.8-2.2 9 9 0 0 0-2.4-1.7 120.7 120.7 0 0 0-6-3c-.9-.5-1.7-1.2-2.6-2a9.3 9.3 0 0 1-2-2.8 9 9 0 0 1-.8-4c0-2 .4-3.7 1.4-5.1a7.8 7.8 0 0 1 4-3.3 15 15 0 0 1 6-1.2 25 25 0 0 1 10 2.4l-2.2 5.6c-1.6-.7-3-1.1-4.2-1.5a14 14 0 0 0-3.8-.5c-.9 0-1.7.1-2.3.4a3.1 3.1 0 0 0-1.9 3c0 .8.2 1.5.7 2 .5.6 1.2 1.1 2.1 1.6a75 75 0 0 0 3.6 1.8c1.7.8 3.2 1.7 4.4 2.6 1.2.9 2.2 1.9 2.9 3a9 9 0 0 1 1 4.5Zm16.2-16.9c2.4 0 4.5.4 6.2 1.4 1.7.9 3 2.2 4 4 1 1.7 1.4 3.8 1.4 6.3v3.5h-16.7c0 2 .7 3.5 1.8 4.7a6.3 6.3 0 0 0 4.7 1.7 19.1 19.1 0 0 0 8.7-2v5.4a17 17 0 0 1-4 1.4c-1.4.3-3 .4-5 .4-2.6 0-5-.5-7-1.4-2-1-3.5-2.4-4.6-4.4-1.2-2-1.8-4.4-1.8-7.4s.6-5.6 1.6-7.6 2.4-3.5 4.3-4.5c1.8-1 4-1.5 6.4-1.5Zm0 5c-1.3 0-2.5.5-3.4 1.3-.9 1-1.4 2.3-1.5 4.2h9.9c0-1-.2-2-.6-2.8-.4-.8-.9-1.5-1.6-2-.7-.5-1.6-.7-2.8-.7Zm31.8-5a15.3 15.3 0 0 1 2.4.2l-.6 6.6-1-.2h-1c-1 0-1.8 0-2.7.3-.9.3-1.6.6-2.3 1.2-.7.5-1.2 1.1-1.6 2a7 7 0 0 0-.6 3v13.3h-7v-26h5.3l1 4.4h.4c.5-.9 1.1-1.7 1.9-2.4a12 12 0 0 1 2.6-1.8c1-.4 2-.6 3.2-.6Zm13.3 26.4-10-26h7.5l5 14.8.6 2.7.4 2.6h.1a20.6 20.6 0 0 1 1-5.3l5-14.7h7.4l-9.8 25.9Zm27.8-25.9v25.9h-7v-26Zm-3.5-10.2c1 0 2 .3 2.7.8.8.4 1.1 1.3 1.1 2.7 0 1.3-.3 2.2-1.1 2.7s-1.7.7-2.7.7c-1 0-2-.2-2.7-.7-.8-.5-1.2-1.4-1.2-2.7 0-1.4.4-2.3 1.2-2.7.7-.5 1.6-.8 2.7-.8Zm21.4 36.5c-2.5 0-4.7-.4-6.5-1.4a9.3 9.3 0 0 1-4.2-4.3c-.9-2-1.4-4.5-1.4-7.6 0-3.1.6-5.7 1.6-7.7a10 10 0 0 1 4.5-4.4c2-1 4.1-1.4 6.7-1.4a18 18 0 0 1 8 1.7l-2 5.5a34 34 0 0 0-3.2-1.1c-1-.3-1.9-.4-2.8-.4a5 5 0 0 0-3.1.9c-.9.5-1.5 1.4-1.9 2.5a14.2 14.2 0 0 0 .1 8.7c.4 1 1 2 1.9 2.5.8.5 1.8.8 3 .8 1.4 0 2.7-.2 3.9-.6a15 15 0 0 0 3.3-1.6v6c-1 .7-2.2 1.2-3.4 1.5-1.2.3-2.7.4-4.5.4Zm24.6-26.8c2.4 0 4.4.4 6.2 1.4 1.7.9 3 2.2 4 4 .9 1.7 1.4 3.8 1.4 6.3v3.5h-16.7c0 2 .7 3.5 1.8 4.7a6.3 6.3 0 0 0 4.6 1.7 19.1 19.1 0 0 0 8.8-2v5.4a17 17 0 0 1-4 1.4c-1.4.3-3.1.4-5 .4-2.7 0-5-.5-7-1.4a11 11 0 0 1-4.7-4.4c-1.1-2-1.7-4.4-1.7-7.4s.5-5.6 1.5-7.6 2.5-3.5 4.3-4.5c1.9-1 4-1.5 6.5-1.5Zm0 5a5 5 0 0 0-3.4 1.3c-1 1-1.4 2.3-1.6 4.2h10c0-1-.3-2-.6-2.8-.4-.8-1-1.5-1.6-2a5 5 0 0 0-2.8-.7Zm35.4 13.7c0 1.7-.4 3.2-1.3 4.4-.8 1.2-2 2.2-3.7 2.8a17 17 0 0 1-6 1 26 26 0 0 1-4.7-.4l-4-1.2v-5.8a26.8 26.8 0 0 0 8.9 2.1c1.3 0 2.3-.2 3-.6.5-.4.8-.9.8-1.6a2 2 0 0 0-.4-1.1c-.2-.4-.7-.8-1.5-1.2-.8-.5-2-1-3.7-1.7-1.6-.7-3-1.4-4-2.1a7 7 0 0 1-2.3-2.5c-.5-1-.8-2.1-.8-3.6a6 6 0 0 1 2.8-5.4c1.9-1.2 4.4-1.8 7.5-1.8a21.4 21.4 0 0 1 9 2l-2 5.1-3.7-1.4c-1.1-.3-2.3-.5-3.4-.5-1 0-1.8.2-2.4.4-.5.3-.8.7-.8 1.3 0 .4.2.8.5 1.1a46.9 46.9 0 0 0 5 2.6 27 27 0 0 1 3.8 1.9c1 .6 1.9 1.5 2.5 2.4a7 7 0 0 1 .9 3.8Zm9.5 292.4-2.5-8h-12.3l-2.5 8h-7.7l12-34h8.7l12 34Zm-4.2-14-2.4-8-.7-2a348.9 348.9 0 0 1-1.3-4.7l-.7 2.3-.7 2.7-.6 1.8-2.4 7.8Zm26.1 14.5c-2.5 0-4.7-.5-6.5-1.4a9.3 9.3 0 0 1-4.2-4.4 18 18 0 0 1-1.4-7.5c0-3.2.6-5.7 1.6-7.7a10 10 0 0 1 4.5-4.4 18 18 0 0 1 14.7.3l-2 5.4a34 34 0 0 0-3.2-1c-1-.3-1.9-.5-2.8-.5-1.3 0-2.3.3-3.1 1-.8.5-1.5 1.3-1.9 2.5-.4 1.2-.6 2.6-.6 4.4 0 1.7.3 3 .7 4.2.4 1.1 1 2 1.9 2.5.8.6 1.8.9 3 .9 1.4 0 2.7-.2 3.9-.6a15 15 0 0 0 3.3-1.7v6c-1 .7-2.2 1.2-3.4 1.5-1.2.3-2.7.5-4.5.5Zm24.4 0a15 15 0 0 1-6.6-1.4 9.3 9.3 0 0 1-4-4.4c-1-2-1.5-4.4-1.5-7.5 0-3.2.6-5.7 1.6-7.7a10 10 0 0 1 4.5-4.4 14 14 0 0 1 6.6-1.5 18 18 0 0 1 8.1 1.8l-2 5.4a34 34 0 0 0-3.2-1c-1-.3-2-.5-2.9-.5-1.2 0-2.2.3-3 1-.9.5-1.5 1.3-1.9 2.5-.4 1.2-.6 2.6-.6 4.4 0 1.7.2 3 .7 4.2a4.8 4.8 0 0 0 4.8 3.4c1.5 0 2.8-.2 4-.6a15 15 0 0 0 3.3-1.7v6c-1.1.7-2.2 1.2-3.4 1.5-1.2.3-2.7.5-4.5.5Zm37.5-13.5c0 2.2-.4 4-1 5.8a10.8 10.8 0 0 1-6.5 6.8 14.9 14.9 0 0 1-10.2 0 11.1 11.1 0 0 1-6.6-6.8c-.6-1.7-.9-3.6-.9-5.8 0-2.9.5-5.3 1.5-7.3s2.5-3.5 4.4-4.5a14.1 14.1 0 0 1 13.2 0 11 11 0 0 1 4.4 4.5c1 2 1.6 4.4 1.6 7.3Zm-18 0c0 1.7.2 3.1.5 4.3a5 5 0 0 0 1.8 2.6 5 5 0 0 0 3 .9 5 5 0 0 0 3.1-.9 5 5 0 0 0 1.7-2.6c.4-1.2.6-2.6.6-4.3 0-1.7-.2-3.1-.6-4.3-.3-1.1-.9-2-1.7-2.5-.8-.6-1.8-.9-3-.9-2 0-3.3.7-4.1 2-.9 1.2-1.3 3.2-1.3 5.7Zm47.5-12.9v25.9h-5.4l-1-3.3h-.4a7 7 0 0 1-2 2.1 9 9 0 0 1-2.8 1.3c-1 .2-2 .4-3.1.4-1.9 0-3.5-.4-4.8-1a7.1 7.1 0 0 1-3.3-3c-.7-1.5-1.1-3.3-1.1-5.5v-16.9h7v15.1c0 1.9.4 3.3 1 4.2.7 1 1.8 1.4 3.2 1.4 1.5 0 2.6-.3 3.4-1a5 5 0 0 0 1.7-2.8c.4-1.3.5-2.9.5-4.7v-12.2Zm22.1-.4c2.8 0 5 .7 6.7 2.2 1.6 1.5 2.5 4 2.5 7.2v16.9h-7v-15.1c0-1.9-.4-3.3-1-4.2-.7-1-1.8-1.4-3.2-1.4-2.2 0-3.7.7-4.5 2.2-.8 1.4-1.1 3.6-1.1 6.3v12.2h-7.1v-25.9h5.4l1 3.3h.3a7 7 0 0 1 2.1-2.1 8 8 0 0 1 2.8-1.3c1-.2 2-.4 3.1-.4Zm27.4 21.1c.7 0 1.5 0 2.2-.2a8 8 0 0 0 2.2-.6v5.3a18.4 18.4 0 0 1-6.5 1.2c-1.5 0-3-.3-4.1-.8a5.9 5.9 0 0 1-3-2.6c-.6-1.2-1-3-1-5.2v-12.5h-3.4v-3l4-2.3 2-5.5h4.5v5.5h7.2v5.3H700v12.5c0 1 .3 1.7.8 2.2.6.5 1.3.7 2.3.7Zm16.7-20.7v25.9h-7v-25.9Zm-3.5-10.1c1 0 2 .2 2.7.7.7.5 1.1 1.4 1.1 2.7 0 1.3-.4 2.2-1.1 2.7a5 5 0 0 1-5.4 0c-.8-.5-1.2-1.4-1.2-2.7 0-1.3.4-2.2 1.2-2.7.7-.5 1.6-.7 2.7-.7Zm25.6 9.7c2.8 0 5 .7 6.7 2.2 1.7 1.5 2.5 4 2.5 7.2v16.9h-7v-15.1c0-1.9-.4-3.3-1-4.2-.7-1-1.8-1.4-3.2-1.4-2.2 0-3.7.7-4.5 2.2-.7 1.4-1.1 3.6-1.1 6.3v12.2h-7v-25.9h5.3l1 3.3h.3a9 9 0 0 1 4.9-3.4c1-.2 2-.4 3.1-.4Zm24.1 37.7a15 15 0 0 1-8.3-1.9 6 6 0 0 1-2.9-5.3c0-1.5.5-2.8 1.5-3.9 1-1 2.4-1.8 4.2-2.2-.7-.3-1.3-.9-1.8-1.5-.6-.8-.9-1.5-.9-2.3 0-1 .3-1.8.9-2.5a10 10 0 0 1 2.5-1.9 7 7 0 0 1-3.3-2.8 8.7 8.7 0 0 1-1.2-4.6 9 9 0 0 1 1.3-4.8c.8-1.3 2-2.3 3.6-3a14.3 14.3 0 0 1 7.4-1 32.4 32.4 0 0 1 2.9.4h9v3.6l-4 1a6.8 6.8 0 0 1 1 4c0 2.7-.9 4.9-2.8 6.4-2 1.6-4.7 2.4-8.1 2.4l-2.3-.2c-.4.3-.7.5-.8.9-.2.3-.3.6-.3 1 0 .3.1.5.4.8.3.2.7.4 1.3.5l2.2.2h4.4c2.8 0 5 .6 6.5 1.8 1.5 1.2 2.2 3 2.2 5.4a8 8 0 0 1-3.8 7 19.7 19.7 0 0 1-10.8 2.5Zm.2-4.6a17 17 0 0 0 4.4-.5c1.2-.3 2.1-.8 2.8-1.3a3 3 0 0 0 1-2.1 2 2 0 0 0-.6-1.6c-.4-.3-1-.6-1.7-.7-.8-.2-1.8-.3-3-.3h-3.6c-.9 0-1.7.2-2.3.4a4 4 0 0 0-1.7 1.2c-.4.5-.6 1-.6 1.8 0 1 .5 1.7 1.4 2.3 1 .5 2.3.8 4 .8Zm1.2-19.6c1.3 0 2.3-.5 2.9-1.3.6-.8 1-1.9 1-3.3 0-1.6-.4-2.7-1-3.5-.7-.8-1.6-1.2-3-1.2-1.2 0-2.2.4-2.8 1.2-.7.8-1 2-1 3.5 0 1.4.3 2.5 1 3.3.6.8 1.6 1.3 2.9 1.3ZM576 689.1c0 2-.5 3.8-1.5 5.3a9.3 9.3 0 0 1-4.2 3.4 17 17 0 0 1-6.8 1.2 25 25 0 0 1-6.6-1c-1-.2-2-.6-3-1v-6.7l5 2c1.8.5 3.5.8 5.2.8 1.1 0 2.1-.2 2.8-.5.7-.3 1.3-.7 1.6-1.3.3-.5.5-1.1.5-1.8a3 3 0 0 0-.9-2.2 9 9 0 0 0-2.4-1.7 120.7 120.7 0 0 0-5.9-3c-1-.6-1.8-1.2-2.6-2a9.3 9.3 0 0 1-2-2.8 9 9 0 0 1-.9-4c0-2 .5-3.7 1.4-5.2a10 10 0 0 1 4-3.3 15 15 0 0 1 6-1.1c1.8 0 3.5.2 5.1.6 1.6.4 3.3 1 5 1.8l-2.3 5.5-4.2-1.4a14 14 0 0 0-3.7-.5 5 5 0 0 0-2.3.4 3.1 3.1 0 0 0-2 3c0 .8.3 1.5.8 2 .4.6 1.1 1 2 1.6a75 75 0 0 0 3.6 1.8c1.8.8 3.2 1.7 4.5 2.5 1.2 1 2.1 2 2.8 3.2a9 9 0 0 1 1 4.4Zm16.2-17c2.4 0 4.5.5 6.2 1.4 1.8 1 3.1 2.3 4 4 1 1.8 1.5 3.9 1.5 6.4v3.4h-16.7c0 2 .6 3.6 1.8 4.7a6.3 6.3 0 0 0 4.6 1.7 19.1 19.1 0 0 0 8.8-2v5.5a17 17 0 0 1-4 1.3c-1.4.3-3.1.5-5.1.5-2.6 0-4.9-.5-6.9-1.4-2-1-3.6-2.5-4.7-4.4-1.1-2-1.7-4.5-1.7-7.4 0-3 .5-5.6 1.5-7.6s2.5-3.5 4.3-4.5c1.9-1 4-1.6 6.4-1.6Zm.1 5c-1.4 0-2.5.5-3.4 1.4-1 .9-1.4 2.3-1.6 4.1h10c0-1-.3-2-.6-2.7a4.5 4.5 0 0 0-4.4-2.7Zm31.7-5a15.3 15.3 0 0 1 2.4.3l-.5 6.6-1-.2h-1c-1 0-1.9 0-2.7.3-.9.2-1.7.6-2.3 1.1-.7.5-1.3 1.2-1.7 2a8 8 0 0 0-.5 3.2v13.1h-7.1v-25.9h5.3l1 4.4h.4c.5-.9 1.2-1.7 2-2.4a8 8 0 0 1 5.7-2.5Zm13.3 26.4-9.9-25.9h7.4l5 14.8.7 2.7.3 2.6h.2a20.6 20.6 0 0 1 1-5.3l5-14.8h7.4l-9.9 26Zm27.9-25.9v26H658v-26Zm-3.6-10.1c1 0 2 .2 2.7.7.8.5 1.2 1.4 1.2 2.7 0 1.4-.4 2.3-1.2 2.8-.7.5-1.6.7-2.7.7-1 0-2-.2-2.7-.7-.7-.5-1.1-1.4-1.1-2.8 0-1.3.4-2.2 1.1-2.7a5 5 0 0 1 2.7-.7ZM683 699c-2.5 0-4.7-.5-6.5-1.4a9.3 9.3 0 0 1-4.1-4.4c-1-2-1.4-4.4-1.4-7.5 0-3.1.5-5.7 1.6-7.7 1-2 2.6-3.5 4.5-4.4 1.9-1 4-1.5 6.6-1.5a18 18 0 0 1 8 1.8l-2 5.5a34 34 0 0 0-3.1-1.1c-1-.3-2-.4-2.9-.4-1.2 0-2.3.2-3 .8-.9.6-1.5 1.5-2 2.6a17.8 17.8 0 0 0 .1 8.6c.5 1.2 1 2 1.9 2.5.8.6 1.8.9 3 .9 1.5 0 2.8-.2 4-.6a15 15 0 0 0 3.3-1.7v6a9.8 9.8 0 0 1-3.5 1.5c-1.1.3-2.6.5-4.4.5Zm24.6-26.9c2.4 0 4.5.5 6.2 1.4 1.7 1 3 2.3 4 4 1 1.8 1.4 3.9 1.4 6.4v3.4h-16.7a7 7 0 0 0 1.8 4.7 6.3 6.3 0 0 0 4.7 1.7 19.1 19.1 0 0 0 8.8-2v5.5a17 17 0 0 1-4 1.3 26 26 0 0 1-5.1.5c-2.6 0-5-.5-7-1.4-2-1-3.5-2.5-4.6-4.4-1.2-2-1.7-4.5-1.7-7.4 0-3 .5-5.6 1.5-7.6s2.5-3.5 4.3-4.5c1.8-1 4-1.6 6.4-1.6Zm0 5c-1.3 0-2.5.5-3.4 1.4-.9.9-1.4 2.3-1.5 4.1h9.9c0-1-.2-2-.6-2.7a4 4 0 0 0-1.6-2c-.7-.5-1.6-.7-2.7-.7Zm35.4 13.7a8 8 0 0 1-1.2 4.5c-.9 1.2-2 2.1-3.7 2.8a26 26 0 0 1-10.8.6l-3.9-1.2v-5.9a26.8 26.8 0 0 0 8.8 2.2c1.4 0 2.4-.2 3-.6.6-.4.9-1 .9-1.6a2 2 0 0 0-.4-1.2 37.6 37.6 0 0 0-5.3-3c-1.6-.6-2.9-1.2-4-2a7 7 0 0 1-2.3-2.4 8 8 0 0 1-.7-3.6 6 6 0 0 1 2.8-5.4c1.8-1.2 4.3-1.9 7.4-1.9a21.4 21.4 0 0 1 9.1 2l-2 5.2-3.7-1.4c-1.1-.3-2.3-.5-3.5-.5-1 0-1.8.1-2.3.4-.5.3-.8.7-.8 1.3 0 .4.1.8.4 1 .3.4.8.8 1.6 1.2l3.4 1.5c1.5.6 2.8 1.2 3.8 1.9 1.1.6 2 1.4 2.5 2.4a7 7 0 0 1 1 3.7Zm0 0"></path></svg> 