<svg xmlns="http://www.w3.org/2000/svg" viewBox="0 0 682 683" stroke-width=".133" stroke-linecap="round"> <path d="m335.27 2.239c-7.867 3.733-331.87 229.87-333.33 232.53-1.867 3.6-1.867 9.867 0 13.467 2.533 4.933 6.8 6.667 17.067 7.333l9.733 0.667v47.867l3.867 3.867c3.6 3.6 4.667 3.867 14 3.867h10.133v229.33h-10.133c-9.333 0-10.4 0.267-14 3.867l-3.867 3.867v50.666l-7.067 4c-8.533 4.8-13.467 10.4-18.133 20.267-3.2 6.8-3.333 8.667-3.467 27.467 0 21.733 0.933 25.467 7.067 28.667 5.067 2.8 662.13 2.8 667.2 0 6.133-3.2 7.067-6.933 7.067-28.8 0-20 0-20.133-4.4-29.067-2.8-5.733-6.533-10.667-10.267-13.867l-5.867-4.8 3.867-7.467c5.733-11.467 11.867-29.867 14-42.533 2.267-12.933 2.667-39.733 0.667-51.867-5.333-32.267-22-64.267-45.6-87.333l-9.067-8.8v-93.6h10.133c9.333 0 10.4-0.267 14-3.867l3.867-3.867v-47.867l9.733-0.667c5.2-0.4 10.933-1.467 12.533-2.4 6.267-4 8-13.733 3.467-19.6-2.933-3.6-327.2-229.33-333.33-231.87-5.2-2.267-4-2.267-9.867 0.533zm143.73 124.4 141.07 98.667c2.533 2.533-4.267 2.533-279.07 2.533-154.8 0-281.6-0.4-281.47-1.067 0-0.667 277.87-194.8 280.8-196.13 0.133-0.133 62.533 43.2 138.67 96zm-308.93 143.87v14.667h-114.67v-29.334h114.67v14.667zm85.333 6.667c0 30.933 2.133 34.667 19.6 34.667h9.733v229.33h-9.733c-17.467 0-19.6 3.733-19.6 34.667v21.333h-57.334v-22.667c0-13.333-0.533-23.867-1.467-25.733-2.4-5.2-8-7.6-17.733-7.6h-8.8v-229.33h8.667c17.733 0 19.333-2.667 19.333-33.2v-22.8h57.334v21.333zm142.67-6.667v14.667h-114.67v-29.334h114.67v14.667zm85.333 8.133c0 30.533 1.6 33.2 19.333 33.2h8.667v58.666l-2.933 0.533c-1.733 0.4-6.933 1.333-11.733 2.133-21.2 3.733-45.733 14.533-64 28.133-9.733 7.2-26.933 24.267-31.333 31.067-1.333 1.867-2.8 3.467-3.467 3.467s-1.2-26.933-1.2-62v-62h9.867c17.333 0 19.467-4 19.467-35.733v-20.267h57.332v22.8zm142.67-8.133v14.667h-114.67v-29.334h114.67v14.667zm-484 156v114.67h-57.334v-229.33h57.334v114.67zm228 0v114.67h-58.667v-229.33h58.666v114.67zm226.67-76.667v38l-6.667-3.333c-8.8-4.4-23.867-9.2-35.333-11.2l-12.267-2.267-3.067-0.533v-58.666h57.334v38zm-52 49.333c42.667 6.4 77.333 31.867 96 70.533 8.533 17.6 12 30.933 12.933 50.133 1.733 37.467-10.933 70.133-37.467 96.8-26.667 26.533-59.333 39.2-96.8 37.467-32.667-1.6-61.2-14.267-84.667-37.467-18.4-18.267-29.733-39.467-35.467-66.8-2.533-11.867-2.267-37.867 0.667-50.667 10.667-47.067 45.733-84.4 90.933-96.8 19.067-5.2 34.667-6.133 53.867-3.2zm-374.67 183.33v14.667h-114.67v-29.334h114.67v14.667zm209.2-4c2.133 5.467 4.667 12 6 14.267l2.267 4.4h-104.13v-29.334l46.133 0.267 46.133 0.4 3.6 10zm32.533 53.6c3.333 3.867 9.867 10 14.667 13.733 4.8 3.6 8.8 7.067 8.8 7.6 0.133 0.667-91.6 1.067-203.87 1.067h-204v-10.133c0-9.733 0.133-10.267 4.533-14.667l4.533-4.533h369.33l6 6.933zm238.4-2.133c2.667 2.933 3.2 5.067 3.733 14l0.4 10.533h-19.733l-19.867-0.133 6.667-5.467c3.733-3.067 10.267-9.333 14.667-13.867 4.4-4.4 8.667-8.267 9.467-8.4 0.8 0 2.8 1.467 4.667 3.333zm-308.4-558.8c-4.267 5.467-7.733 10.4-7.733 10.933 0.133 0.533 26.933 20.533 59.867 44.4l59.733 43.333-127.07 0.4-127.2 0.267v28h302.93l4.533-4.533c5.867-5.867 6.267-12.267 0.933-18-3.733-4-155.73-114.8-157.47-114.8-0.533 0-4.4 4.533-8.533 10zm169.6 370v14.667h-10c-15.2 0-23.067 4.133-29.067 15.333-2.667 4.8-2.933 7.333-2.933 26.8v21.467l4 6.4c2.933 4.8 6 7.6 11.2 10.267l7.067 3.733h62.4v29.334h-57.334v-14.666h-28v6.667c0 10.933 2.4 19.2 7.333 25.067 6.133 7.067 11.867 9.467 24.667 10.533l10.667 0.8v27.6h28v-27.6l10.8-0.8c14.133-0.933 21.733-4.667 27.2-13.6 4-6.4 4-6.8 4.4-27.2 0.4-20.667 0.4-20.933-3.333-28.133-2.8-5.333-5.6-8.4-10.4-11.333l-6.4-4-32.533-0.4-32.4-0.533v-29.066h57.333v14.666h28v-8.4c0-11.067-1.867-17.333-7.067-23.2-6.267-7.067-12.933-9.733-25.2-9.733h-10.4v-29.334h-28v14.667z"></path> </svg>