<svg xmlns="http://www.w3.org/2000/svg" viewBox="0 0 512 512"> <path d="m125.61 201.84c-33.182 0-60.178 26.995-60.178 60.178s26.996 60.178 60.178 60.178 60.178-26.995 60.178-60.178-26.995-60.178-60.178-60.178zm0 90.268c-16.592 0-30.091-13.498-30.091-30.091s13.498-30.091 30.091-30.091 30.091 13.498 30.091 30.091-13.498 30.091-30.091 30.091zm141.44-74.904h60.17v30.09h-60.17zm90.26 0h60.17v30.09h-60.17zm-90.26 60.18h60.17v30.09h-60.17zm90.26 0h60.17v30.09h-60.17zm-90.26-179.15h60.17v30.09h-60.17zm90.26 0h60.17v30.09h-60.17zm-90.26 60.17h60.17v30.09h-60.17zm90.26 0h60.17v30.09h-60.17zm94.277-128.26v-30.14h-220.65v30.293h-61.18v114.37c-13.737-5.184-28.61-8.029-44.139-8.029-69.133 0-125.38 56.244-125.38 125.38 0 28.318 18.695 74.747 57.153 141.94 27.554 48.137 55.502 89.337 55.781 89.748l12.441 18.299 12.441-18.299c0.224-0.331 18.387-27.106 39.838-62.651h333.87v-400.71h1e-3l-60.174-0.204zm-325.97 427.87c-34.842-53.693-95.289-155.3-95.289-196 0-52.543 42.746-95.289 95.289-95.289s95.29 42.746 95.29 95.289c0 40.699-60.446 142.31-95.29 196zm356.06-57.051h-124.36v-62.186h-30.087v62.186h-131.69c37.3-65.572 55.454-111.05 55.454-138.95 0-41.376-20.152-78.129-51.151-100.98v-100.66h61.18v-30.293h160.48v30.037l60.174 0.205v340.63z"></path> </svg>