<svg xmlns="http://www.w3.org/2000/svg" viewBox="0 0 512 512"> <path d="m256 152.91a15.87 15.87 0 0 1 15.86 15.86h15.86a31.69 31.69 0 0 0-23.79-30.6v-17h-15.86v17a31.66 31.66 0 0 0 7.93 62.32 15.86 15.86 0 1 1-15.86 15.86h-15.86a31.68 31.68 0 0 0 23.79 30.59v17h15.86v-17a31.65 31.65 0 0 0-7.93-62.31 15.86 15.86 0 0 1 0-31.72z"></path> <path d="M501.84 216.35v-63.44h-47.58V10.16H133.52L57.74 94.35v58.56H10.16v63.44h47.58v26.89l-30.32-11H10.16v174.44h69.27l4.16-13.31 33.51 20.1 22.22 5.79a24.6 24.6 0 0 0 21.61 34.91 24.72 24.72 0 0 0 24.66 23.88 24.41 24.41 0 0 0 8.21-1.52A24.49 24.49 0 0 0 232 489l5.87 5.87a23.61 23.61 0 0 0 16.82 7H256a23.77 23.77 0 0 0 22.28-15.7 23.53 23.53 0 0 0 40.28-9.95 23.27 23.27 0 0 0 31.72-15.86 23.44 23.44 0 0 0 32.6-21.93v-2.64a23.86 23.86 0 0 0-4.76-14.28l-2.63-3.5 29.45-23.56 3.84 12.26h93.06v-174.5H486l-31.72 9v-24.86zM137.05 30v59.46H83.48zM73.6 105.32h79.31V26H438.4v126.91h-47.59v-30.69l-93.6 62.41 93.6 62.4v-30.68h47.59v29.33L365 266.46l6.87 22L273 295a55.31 55.31 0 0 0-21.14 5.74l-17 8.48a55.53 55.53 0 0 0-24.22-5.66h-55.86l-37.3-18.65 5.6-17.93L73.6 249v-32.65h47.59V247l93.6-62.4-93.6-62.41v30.69H73.6zM26 200.49v-31.72h111v-16.9l49.14 32.76L137 217.39v-16.9zm41.78 190.32H26V248.58l77.41 28.14zm56.48 8.46l-35.8-21.48 24.23-77.52L151 319.44h59.6a39.62 39.62 0 0 1 21 6l43.12 26.95a10.64 10.64 0 0 1 5 9.07v2.77a10.7 10.7 0 0 1-16.2 9.17l-29.72-17.83a31.47 31.47 0 0 0-37.71 4.64l-45.62 45.62zm139.67 78.78A7.94 7.94 0 0 1 256 486h-1.36a8 8 0 0 1-5.61-2.33l-6.57-6.56a7.9 7.9 0 0 1-2.32-5.62v-1.35a7.94 7.94 0 0 1 7.93-7.93h1.36a8 8 0 0 1 5.61 2.32l6.57 6.57a7.87 7.87 0 0 1 2.32 5.61zm39.65-7.93a7.93 7.93 0 0 1-14.27 4.76l-15.86-21.15a8 8 0 0 1-1.59-4.76v-2.64a7.93 7.93 0 0 1 14.27-4.76L302 462.72a7.92 7.92 0 0 1 1.59 4.76zm31.72-15.86A7.93 7.93 0 0 1 321 459l-15.86-21.15a8 8 0 0 1-1.59-4.76v-2.64a7.93 7.93 0 0 1 14.27-4.76l15.87 21.15a8 8 0 0 1 1.58 4.76zM367 438.4a7.93 7.93 0 0 1-14.27 4.76L336.89 422a8 8 0 0 1-1.59-4.76v-2.64a7.94 7.94 0 0 1 14.28-4.76L365.44 431a8 8 0 0 1 1.58 4.76zm-1-33.11l-3.71-5a23.72 23.72 0 0 0-41.95 8.2 23.3 23.3 0 0 0-31.72 15.86A23.46 23.46 0 0 0 256 446.33v1a23.67 23.67 0 0 0-6.57-1h-1.36a23.81 23.81 0 0 0-23.79 23.79v1.35a25 25 0 0 0 .29 3l-1 1a8.9 8.9 0 0 1-15.18-6.29 8.83 8.83 0 0 1 2.6-6.29l34.73-34.73-11.22-11.21-42.65 42.66a9 9 0 0 1-6.29 2.6A8.9 8.9 0 0 1 179.3 447l42.7-42.65-11.22-11.21-42.65 42.65a9 9 0 0 1-6.29 2.61 8.9 8.9 0 0 1-6.29-15.18l51.79-51.79a15.28 15.28 0 0 1 18.34-2.26L255.42 387a26.57 26.57 0 0 0 40.23-22.77v-2.77A26.39 26.39 0 0 0 283.17 339L251 318.9l7.87-3.94a39.37 39.37 0 0 1 15.09-4.1L376.69 304l23.17 74.16zm120-156.9v142.42h-65.57l-35.49-113.56zm-111-47.9v16.9l-49.14-32.76L375 151.87v16.9h111v31.72zM168.77 41.88h253.77v15.86H168.77zm0 31.72h253.77v15.86H168.77z"></path> </svg>