<svg xmlns="http://www.w3.org/2000/svg" viewBox="0 0 469.17 469.17" height="512" width="512"> <path d="M154.585 134.152c-53.019 0-96 42.981-96 96s42.981 96 96 96 96-42.981 96-96-42.981-96-96-96zm71.047 60h-34.598c-3.309-16.58-8.477-29.981-13.754-40.32 21.142 6.309 38.497 20.969 48.352 40.32zm-47.047 36c0 7.142-.535 13.703-1.27 20h-45.457c-.738-6.297-1.274-12.859-1.274-20s.527-13.705 1.258-20h45.489c.727 6.295 1.254 12.856 1.254 20zm-26.328-79.766c.789-.023 1.531-.234 2.328-.234.805 0 1.55.215 2.351.238 6.004 9.211 13.305 23.782 17.726 43.762H134.51c4.442-20.049 11.77-34.613 17.747-43.766zm-20.367 3.446c-5.258 10.317-10.43 23.733-13.742 40.32h-34.61c9.856-19.351 27.211-34.007 48.352-40.32zm-57.305 76.32c0-6.946 1.168-13.57 2.84-20h38.293c-.668 6.336-1.133 12.926-1.133 20s.477 13.66 1.156 20H77.425c-1.672-6.43-2.84-13.054-2.84-20zm8.953 36h34.649c3.344 16.617 8.519 30.133 13.68 40.313-21.13-6.313-38.477-20.969-48.329-40.313zm73.371 43.766c-.789.024-1.527.234-2.324.234s-1.535-.211-2.328-.234c-5.734-8.82-13.203-23.424-17.726-43.766h40.11c-4.517 20.329-11.978 34.926-17.732 43.766zm20.402-3.453c5.168-10.19 10.34-23.695 13.676-40.313h34.645c-9.852 19.342-27.196 33.997-48.321 40.313zm16.122-56.313c.676-6.34 1.152-12.922 1.152-20s-.461-13.664-1.129-20h38.289c1.672 6.43 2.84 13.055 2.84 20s-1.168 13.57-2.84 20h-38.312zm-118.848 124h160v16h-160zm263.103-84.345l8.285-30.909 15.454 4.142-8.285 30.909zm-37.27 139.059l28.985-108.178 15.454 4.141-28.985 108.178zm134.44-378.074L249.402 1.098A32.05 32.05 0 0 0 241.101 0c-14.129.001-27.058 9.43-30.89 23.726l-16.726 62.426h-166.9c-8.836 0-16 7.163-16 16v320c0 8.837 7.164 16 16 16h184.801l111.664 29.92c2.774.743 5.558 1.098 8.301 1.098 14.129 0 27.058-9.43 30.89-23.726l95.246-355.461c4.575-17.07-5.558-34.617-22.629-39.191zM26.585 422.152v-320h240c8.824 0 16 7.178 16 16v288c0 8.822-7.176 16-16 16h-240zm415.449-336.31l-95.246 355.461c-1.875 6.988-8.222 11.868-15.438 11.868-1.39 0-2.789-.186-4.16-.554l-55.793-14.95c15.37-2.335 27.187-15.49 27.187-31.514V279.309l8.195 2.196 8.285-30.91-15.457-4.141-1.023 3.824V123.129l16.328 4.376 18.922 61.862 13.246 3.55-1.254-57.129 23.402 6.271 10.285 18.137 8.832 2.366-1.519-25.253 13.942-21.111-8.832-2.366-17.973 10.565-23.406-6.271 29.652-48.846-13.246-3.55-47.317 44.114-24.957-6.687c-5.39-10.074-15.886-17.004-28.105-17.004h-56.539l15.617-58.284c1.875-6.987 8.223-11.867 15.438-11.868 1.39 0 2.789.186 4.16.554l185.457 49.694a15.89 15.89 0 0 1 9.715 7.455c2.138 3.7 2.707 8.011 1.602 12.138zM337.715 232.073l4.093-15.467 15.204 4.023-4.093 15.467zm30.367 8.068l4.093-15.466 15.204 4.023-4.093 15.466zm-60.732-16.112l4.093-15.466 15.204 4.023-4.093 15.466z"></path> </svg>